<?xml version="1.0" standalone="no"?>
<!DOCTYPE svg PUBLIC "-//W3C//DTD SVG 20010904//EN"
 "http://www.w3.org/TR/2001/REC-SVG-20010904/DTD/svg10.dtd">
<svg version="1.0" xmlns="http://www.w3.org/2000/svg"
 width="1516.000000pt" height="2228.000000pt" viewBox="0 0 1516.000000 2228.000000"
 preserveAspectRatio="xMidYMid meet">

<g transform="translate(0.000000,2228.000000) scale(0.100000,-0.100000)"
fill="#000000" stroke="none">
<path d="M2975 5630 c-22 -11 -43 -19 -48 -20 -4 0 -26 -9 -50 -19 -23 -11
-60 -27 -82 -36 -22 -10 -34 -19 -27 -22 6 -3 9 -9 6 -14 -7 -12 62 16 96 39
14 9 50 29 80 43 30 15 62 32 70 38 24 17 -2 12 -45 -9z"/>
<path d="M12560 5566 c0 -3 23 -18 52 -32 29 -15 64 -35 79 -47 16 -11 35 -17
44 -13 9 3 13 2 10 -4 -3 -6 1 -10 9 -10 32 0 26 21 -11 36 -21 9 -60 26 -88
39 -59 27 -95 39 -95 31z"/>
<path d="M13310 5074 l0 -136 -32 24 c-57 42 -61 43 -45 12 8 -16 28 -39 45
-51 27 -20 30 -29 34 -90 3 -37 11 -101 19 -141 33 -182 -67 -472 -229 -657
-109 -125 -258 -253 -402 -347 -431 -279 -1037 -513 -1800 -693 -342 -80 -872
-174 -1190 -210 -74 -9 -142 -17 -150 -20 -14 -4 -150 -17 -310 -31 -36 -3
-99 -9 -140 -14 -73 -10 -432 -32 -750 -47 -202 -10 -1109 -10 -1315 0 -301
14 -670 37 -745 47 -41 5 -109 12 -150 15 -409 34 -1017 126 -1455 220 -729
158 -1332 365 -1787 616 -233 128 -367 225 -522 377 -249 244 -325 447 -341
912 -4 112 -4 110 -14 110 -5 0 -48 -30 -97 -66 -317 -235 -544 -505 -634
-752 -48 -132 -73 -271 -66 -368 13 -185 86 -376 208 -549 56 -79 271 -309
353 -376 587 -482 1525 -874 2690 -1124 33 -7 103 -22 155 -33 219 -48 444
-88 705 -126 94 -14 199 -30 235 -36 138 -22 413 -38 505 -29 51 5 250 6 455
1 390 -7 801 -8 1910 -2 473 2 736 -1 824 -8 111 -10 160 -9 365 8 130 11 263
25 296 30 33 5 112 16 175 25 300 39 1040 188 1380 276 405 106 859 263 1193
413 131 59 436 214 447 227 10 12 261 169 270 169 6 0 10 3 10 8 0 4 9 12 20
17 183 92 444 319 583 506 70 95 155 244 162 283 4 17 5 182 3 366 l-3 335
-32 68 c-43 91 -91 163 -189 282 -123 151 -293 305 -514 464 -61 44 -69 60
-51 105 6 16 21 9 134 -67 170 -115 251 -182 385 -321 61 -65 112 -115 112
-112 0 3 -35 49 -78 103 -74 93 -239 255 -327 323 -56 43 -291 200 -299 200
-3 0 -6 -61 -6 -136z"/>
<path d="M1934 5117 c-140 -95 -191 -136 -304 -244 -187 -179 -303 -348 -355
-516 -13 -44 -23 -83 -21 -85 3 -2 14 17 25 42 24 56 117 197 184 281 114 143
306 317 497 451 77 53 80 57 80 95 0 21 -3 39 -7 39 -5 0 -49 -28 -99 -63z"/>
<path d="M2256 5095 c-25 -20 -46 -38 -46 -41 0 -10 56 25 79 50 34 36 22 33
-33 -9z"/>
<path d="M1227 3433 c-14 -70 30 -272 80 -372 l28 -55 60 -3 c89 -5 102 -7
125 -28 35 -32 22 -4 -25 50 -77 90 -190 267 -224 350 -18 44 -34 81 -36 83
-1 2 -5 -10 -8 -25z"/>
<path d="M14107 3175 c-26 -40 -77 -110 -114 -155 -106 -128 -119 -144 -108
-138 6 4 32 2 58 -4 44 -9 49 -8 68 14 33 39 109 199 130 276 12 41 19 75 17
77 -2 2 -24 -29 -51 -70z"/>
<path d="M3203 1983 c-9 -3 -8 -12 2 -36 15 -36 49 -186 44 -191 -2 -2 -44 9
-93 25 -50 16 -92 26 -95 23 -11 -11 36 -120 80 -187 86 -131 237 -266 355
-318 133 -58 313 -81 465 -60 79 12 219 50 258 71 13 6 39 1 92 -20 199 -77
657 -200 994 -268 447 -90 802 -139 1424 -196 248 -23 265 -26 290 -49 43 -40
133 -102 191 -134 183 -98 478 -173 676 -173 92 0 248 24 326 50 118 40 274
143 364 242 l51 56 249 27 c229 24 523 64 849 115 405 63 1009 213 1330 331
28 10 94 34 148 54 l98 36 35 -31 c77 -67 184 -100 327 -100 370 0 719 216
827 510 20 54 18 100 -4 100 -7 0 -84 -25 -171 -55 -87 -30 -160 -53 -163 -51
-4 5 25 145 36 174 5 15 -18 12 -63 -8 -11 -5 -60 -20 -110 -35 -49 -15 -103
-31 -120 -36 -121 -37 -384 -109 -564 -154 -117 -30 -216 -56 -218 -59 -2 -2
2 -17 10 -33 8 -15 16 -48 18 -72 l4 -45 -40 -8 c-22 -4 -71 -15 -110 -23 -38
-9 -116 -24 -173 -34 l-104 -19 6 23 c4 14 0 28 -9 35 -8 7 -15 19 -15 26 0 8
-4 14 -10 14 -5 0 -10 9 -10 20 0 11 -6 20 -14 20 -24 0 -160 -19 -361 -51
-104 -16 -235 -36 -290 -45 -310 -45 -366 -55 -361 -63 5 -8 -87 -71 -102 -71
-5 0 -18 -8 -30 -18 -20 -17 -20 -20 -5 -35 9 -9 15 -19 12 -22 -12 -12 -641
-61 -984 -76 -797 -35 -1644 -18 -2432 52 -122 10 -227 19 -234 19 -6 0 -8 7
-4 17 9 24 -26 141 -44 148 -13 5 -137 25 -341 54 -232 34 -489 76 -650 106
-161 30 -210 38 -215 33 -3 -2 2 -22 9 -44 8 -21 21 -60 29 -86 18 -60 29 -59
-202 -12 -233 47 -214 39 -206 82 9 52 28 102 38 102 4 0 5 5 2 10 -3 6 4 10
17 11 13 0 -11 9 -52 20 -382 102 -963 276 -1030 309 -8 4 -20 5 -27 3z"/>
</g>
</svg>
