<?xml version="1.0" standalone="no"?>
<!DOCTYPE svg PUBLIC "-//W3C//DTD SVG 20010904//EN"
 "http://www.w3.org/TR/2001/REC-SVG-20010904/DTD/svg10.dtd">
<svg version="1.0" xmlns="http://www.w3.org/2000/svg"
 width="1257.000000pt" height="1323.000000pt" viewBox="0 0 1257.000000 1323.000000"
 preserveAspectRatio="xMidYMid meet">

<g transform="translate(0.000000,1323.000000) scale(0.100000,-0.100000)"
fill="#000000" stroke="none">
<path d="M6210 13200 c-36 -4 -141 -14 -235 -20 -131 -10 -179 -17 -208 -32
-22 -11 -37 -22 -34 -24 3 -3 34 -11 69 -19 83 -17 145 -47 243 -117 141 -99
245 -227 260 -319 8 -44 20 -53 85 -64 46 -8 233 -72 350 -120 171 -71 316
-148 415 -221 154 -113 473 -437 574 -582 13 -18 26 -31 28 -28 15 15 -238
307 -408 471 -167 160 -334 266 -603 379 -171 73 -231 95 -318 118 -45 12 -85
23 -87 24 -5 4 35 44 108 108 38 33 105 77 162 106 75 37 95 51 85 59 -31 26
-209 -83 -323 -198 -54 -54 -56 -55 -67 -6 -10 41 -70 131 -125 186 -91 91
-243 189 -341 221 -7 2 -10 7 -5 10 15 8 156 -57 238 -109 40 -26 97 -69 127
-97 l54 -51 10 28 c7 19 17 27 33 27 14 0 23 6 23 15 0 9 9 15 25 15 14 0 25
6 25 13 0 8 3 7 10 -3 8 -12 11 -12 28 3 11 11 22 13 28 7 11 -11 56 -2 49 10
-3 5 9 5 27 0 17 -6 33 -8 35 -6 6 6 -69 33 -144 51 -40 10 -73 22 -73 27 0 6
8 7 17 3 10 -3 40 -11 68 -16 27 -6 97 -27 154 -47 95 -34 107 -41 149 -90 42
-49 50 -54 155 -87 61 -19 114 -35 119 -35 13 0 239 -87 263 -102 11 -6 83
-44 160 -83 77 -39 190 -105 251 -146 61 -41 131 -85 154 -99 24 -14 71 -46
106 -72 35 -26 85 -58 111 -71 47 -23 185 -97 191 -103 2 -1 -16 -19 -40 -40
-90 -78 -226 -222 -253 -268 -28 -48 -85 -180 -85 -197 0 -5 4 -9 8 -9 9 0 12
5 71 132 33 70 58 105 129 179 123 130 267 234 381 274 56 19 67 11 15 -11
-37 -16 -38 -17 -16 -25 12 -5 22 -13 22 -18 0 -5 9 -7 20 -4 11 3 26 1 33 -5
12 -10 85 -33 122 -38 11 -1 20 -3 20 -4 0 -6 122 -13 168 -10 6 1 47 -1 90
-4 77 -4 78 -4 89 22 l11 27 7 -34 c5 -18 12 -36 17 -40 51 -35 174 -140 239
-205 113 -114 149 -172 319 -506 12 -25 44 -99 70 -165 27 -66 59 -135 71
-154 13 -19 22 -37 20 -39 -5 -4 -77 20 -171 58 -99 39 -108 43 -130 47 -11 1
-29 7 -40 12 -59 28 -300 117 -365 136 -41 12 -176 52 -300 88 -295 87 -365
102 -588 132 -218 29 -246 36 -284 71 -21 21 -26 33 -21 53 6 25 5 26 -14 8
-19 -16 -21 -16 -39 4 -40 44 -71 52 -184 46 -115 -6 -179 -24 -288 -81 -132
-70 -431 -316 -448 -369 -4 -12 -15 -28 -25 -35 -20 -14 -27 -38 -9 -27 6 4
16 3 23 -2 7 -5 28 -10 47 -12 89 -6 287 -89 380 -160 108 -81 197 -216 188
-284 -3 -18 -9 -40 -13 -51 -7 -15 -5 -17 13 -12 29 9 178 -42 322 -110 109
-52 121 -61 220 -162 107 -110 166 -196 196 -285 16 -47 15 -49 -4 -62 -22
-16 -123 -162 -169 -245 -71 -128 -130 -300 -148 -430 -5 -40 -4 -43 8 -27 12
14 31 17 118 17 138 0 252 -30 402 -106 108 -55 242 -180 283 -263 l18 -38 77
-6 c54 -3 96 -13 138 -32 84 -38 92 -50 55 -82 -16 -15 -51 -47 -79 -72 -27
-24 -135 -126 -239 -225 -104 -100 -194 -184 -201 -188 -7 -4 -54 -12 -105
-18 -100 -11 -131 -23 -171 -67 -55 -59 -101 -194 -115 -340 -3 -40 -8 -73 -9
-73 -2 0 -28 10 -59 21 -68 26 -104 19 -187 -37 -28 -19 -55 -33 -60 -32 -4 2
-39 50 -77 108 -83 124 -100 141 -150 149 -33 6 -37 9 -34 33 5 39 -45 89
-152 152 -106 64 -248 187 -389 337 -54 57 -95 95 -91 84 7 -18 6 -18 -9 -6
-12 9 -14 17 -8 25 7 8 2 38 -14 88 -13 42 -34 123 -45 180 -12 56 -23 104
-25 107 -3 2 -2 -21 1 -50 l4 -54 -19 65 c-48 156 -153 608 -145 622 3 4 0 15
-5 25 -6 10 -29 99 -52 198 -67 296 -137 577 -153 624 -9 24 -15 46 -13 48 3
2 21 -15 41 -38 20 -23 36 -38 36 -33 0 5 -21 31 -45 57 -25 26 -45 50 -45 53
0 11 -96 225 -147 329 -55 110 -96 174 -144 225 -14 15 -39 50 -57 76 l-32 49
-1 -140 c-1 -119 -3 -131 -10 -82 -11 78 -34 122 -82 160 -25 20 -49 53 -64
86 -35 79 -82 270 -93 380 -19 185 -21 191 -113 238 -50 26 -58 27 -227 28
-189 2 -334 25 -505 80 -121 40 -484 224 -620 315 -66 44 -128 80 -137 80 -9
0 -32 19 -51 41 l-34 41 -121 19 c-67 10 -159 28 -204 39 -118 30 -341 108
-350 123 -5 7 -8 2 -8 -15 0 -32 -1 -32 -57 -10 -27 11 -77 51 -133 106 l-91
89 -202 44 c-281 61 -332 70 -416 79 l-74 7 7 -29 c4 -16 25 -55 47 -87 29
-42 35 -57 22 -53 -89 28 -618 137 -878 180 -207 35 -634 84 -785 91 -146 7
-626 43 -654 50 -10 2 -26 0 -35 -5 -9 -5 -38 -12 -65 -15 -61 -8 -50 -19 34
-34 150 -28 324 -99 518 -214 133 -78 246 -162 283 -209 32 -41 69 -112 69
-132 0 -17 73 -41 155 -50 97 -12 495 -123 725 -204 230 -80 452 -225 653
-427 148 -149 259 -293 282 -365 5 -17 3 -19 -14 -12 -39 14 -233 -5 -336 -32
-231 -62 -605 -284 -853 -504 -52 -47 -71 -70 -67 -82 3 -11 -1 -20 -11 -24
-15 -6 -15 -4 -3 11 11 14 8 13 -10 -2 -12 -11 -27 -28 -33 -38 -8 -16 -7 -17
11 -8 28 15 36 14 21 -4 -11 -13 -7 -14 33 -9 57 8 174 -8 337 -47 179 -42
271 -74 392 -136 164 -85 261 -184 230 -234 -16 -26 -16 -47 0 -31 18 18 186
15 360 -8 278 -35 367 -62 526 -157 118 -71 212 -157 256 -236 l34 -60 -28
-29 c-86 -85 -269 -421 -343 -628 -25 -69 -56 -174 -70 -235 -14 -60 -26 -114
-27 -120 -1 -5 -1 -26 0 -45 l2 -35 8 33 c4 18 9 35 12 37 2 2 53 18 113 36
93 27 131 32 245 36 288 10 597 -77 731 -206 49 -47 49 -47 77 -31 187 112
525 133 737 45 82 -35 240 -118 298 -157 62 -42 148 -121 163 -150 8 -15 16
-16 75 -6 53 9 81 8 149 -4 136 -26 136 -26 161 -113 20 -68 28 -81 84 -134
53 -50 63 -65 69 -104 7 -45 8 -46 104 -103 154 -92 235 -145 229 -151 -14
-13 -74 8 -85 31 -8 18 -26 27 -76 40 -74 18 -87 20 -67 7 20 -13 -64 -36
-220 -60 l-127 -19 -133 23 c-143 24 -262 62 -238 75 15 9 225 38 304 43 43 3
40 4 -15 5 -36 0 -121 -8 -190 -19 -69 -11 -142 -23 -164 -26 -36 -5 -31 -8
89 -49 70 -23 130 -45 132 -48 3 -3 -7 -10 -23 -16 -16 -6 -36 -13 -44 -17 -8
-3 -18 -7 -22 -7 -4 -1 -13 -7 -20 -13 -6 -7 -21 -13 -32 -13 -23 0 -60 -20
-38 -20 7 0 15 -7 19 -16 3 -10 18 -29 33 -43 24 -23 70 -106 70 -125 0 -4
-34 24 -76 62 -104 95 -168 132 -241 139 -44 5 -64 12 -81 31 -22 23 -27 24
-60 14 -20 -6 -38 -9 -41 -7 -8 9 149 76 222 95 40 10 60 19 46 19 -43 1 -129
-28 -244 -84 -111 -53 -220 -128 -210 -145 5 -8 -148 -47 -276 -70 -41 -7 -78
-21 -95 -35 -133 -109 -169 -143 -237 -231 -90 -115 -178 -256 -211 -342 -13
-33 -33 -106 -45 -163 -12 -57 -31 -135 -43 -173 l-21 -68 26 -54 c14 -29 49
-78 77 -109 27 -30 50 -57 50 -59 0 -3 -14 -42 -30 -87 -40 -107 -48 -145 -60
-283 -12 -133 -4 -200 40 -380 18 -71 30 -146 30 -185 0 -52 4 -69 22 -88 l21
-22 -40 -44 c-41 -44 -45 -57 -88 -241 -21 -92 -56 -156 -116 -219 -28 -29
-69 -77 -91 -107 -36 -50 -39 -59 -33 -99 4 -24 9 -50 12 -58 4 -10 0 -14 -13
-12 -31 5 -62 -10 -84 -40 -16 -23 -63 -139 -86 -211 -2 -8 6 -31 18 -50 12
-19 23 -48 24 -65 3 -75 73 -272 155 -435 71 -143 139 -301 183 -430 37 -105
83 -349 93 -490 3 -47 10 -90 14 -96 6 -7 1 -18 -12 -30 -57 -52 -63 -113 -16
-158 31 -30 33 -36 46 -151 7 -66 15 -132 18 -148 5 -22 3 -26 -11 -21 -9 3
-27 -1 -41 -10 l-25 -16 0 42 c0 26 -9 59 -23 82 -35 62 -44 56 -39 -29 3 -62
1 -75 -11 -75 -9 0 -24 -15 -35 -32 -26 -42 -77 -223 -93 -327 -33 -218 75
-409 285 -502 66 -29 195 -24 274 11 64 28 145 113 179 188 31 67 45 200 33
325 -13 138 -63 279 -92 261 -26 -16 18 371 44 390 46 34 52 123 11 164 -15
15 -26 35 -25 45 2 10 -4 29 -12 42 -9 13 -16 36 -16 50 0 13 -17 71 -39 127
-21 57 -41 131 -44 165 -4 35 -28 181 -53 325 -41 231 -47 278 -45 388 1 84
-3 141 -13 175 -23 79 -79 229 -88 236 -15 10 66 78 112 94 85 30 252 124 335
190 22 17 59 42 83 55 23 13 42 27 42 31 0 4 22 23 49 42 58 42 144 146 200
242 36 61 39 72 28 89 -12 17 -10 26 10 61 12 23 27 69 31 102 9 68 42 115
146 209 58 53 194 144 214 144 15 0 43 -50 91 -160 37 -85 133 -232 164 -252
7 -4 21 -8 31 -8 11 0 44 -27 73 -60 97 -106 233 -170 364 -170 l67 0 6 -33
c5 -26 -2 -51 -30 -112 -32 -70 -48 -130 -85 -328 -9 -47 -15 -60 -34 -67 -28
-11 -63 -63 -109 -163 -46 -102 -49 -120 -26 -150 21 -26 26 -42 11 -33 -5 3
-14 -31 -21 -75 -20 -141 4 -219 106 -345 100 -123 135 -184 195 -338 58 -150
157 -376 170 -390 5 -6 9 -18 9 -28 0 -10 9 -27 20 -38 16 -16 17 -20 4 -20
-24 0 -103 -50 -115 -73 -14 -25 -14 -90 1 -116 6 -12 23 -24 38 -27 15 -4 39
-13 54 -20 24 -12 27 -12 30 4 2 9 7 -12 12 -48 4 -36 20 -117 36 -180 16 -63
34 -142 40 -175 6 -33 13 -67 16 -75 2 -10 -7 -19 -29 -26 l-33 -10 -12 49
c-13 55 -57 137 -74 137 -7 0 -8 -14 -4 -42 20 -126 20 -127 -5 -137 -60 -23
-149 -168 -149 -242 0 -68 49 -232 99 -335 41 -82 63 -113 115 -162 106 -99
200 -109 282 -31 31 30 31 30 61 12 32 -18 43 -54 116 -381 l14 -62 -26 -6
c-14 -3 -38 -10 -53 -14 -21 -7 -28 -6 -28 4 0 16 -76 103 -83 96 -3 -3 1 -27
10 -53 20 -60 7 -108 -43 -163 -58 -63 -57 -121 4 -238 56 -107 116 -166 230
-224 121 -61 177 -77 272 -76 130 1 220 54 271 161 36 76 36 114 -3 198 -15
35 -23 69 -23 113 0 55 -3 66 -24 83 -13 10 -34 19 -46 19 -27 0 -65 43 -65
73 0 11 -7 28 -16 38 -19 21 -20 43 -9 277 8 178 9 184 31 192 13 5 28 18 33
29 17 31 13 89 -6 109 -10 9 -26 30 -36 45 -18 28 -18 30 3 100 36 120 135
378 182 471 l30 60 13 -31 c20 -48 80 -101 117 -105 29 -3 33 -7 39 -41 7 -44
55 -99 112 -128 61 -32 178 -35 332 -9 136 23 133 23 405 -2 201 -17 311 11
370 96 16 25 30 49 30 55 0 6 6 11 14 11 7 0 24 8 37 19 13 10 33 20 43 22 63
13 81 133 35 227 -21 42 -23 52 -10 46 39 -16 53 -15 71 1 17 15 20 31 20 105
0 120 50 277 164 510 53 109 73 191 57 226 -6 13 -25 33 -43 44 -35 21 -63 27
-53 10 3 -5 1 -10 -4 -10 -7 0 -9 34 -4 104 6 103 6 104 -21 129 -26 25 -31
43 -20 84 5 17 14 23 34 23 41 0 138 54 193 108 74 72 144 209 152 297 13 136
11 133 107 235 50 52 137 157 194 232 102 135 291 415 333 493 12 22 34 60 50
85 43 70 62 137 68 240 7 115 -14 237 -55 320 l-27 55 39 100 c51 130 57 207
26 304 l-22 68 22 42 c48 94 14 279 -74 402 l-34 46 47 104 c48 108 185 374
226 439 35 56 98 184 144 295 23 55 76 180 119 277 67 155 79 177 97 173 11
-2 58 -11 105 -20 320 -61 409 -107 558 -288 l57 -70 -2 -134 c-3 -159 7 -193
76 -256 57 -51 191 -119 283 -142 48 -13 92 -16 157 -13 105 5 100 1 221 145
70 83 79 99 100 175 32 113 32 269 1 383 -23 85 -95 245 -110 245 -4 0 -14 15
-22 33 -17 43 -74 127 -185 274 -123 162 -134 195 -145 443 -6 157 -11 199
-34 274 -21 71 -24 95 -16 113 15 33 13 150 -3 194 -18 51 -191 273 -262 336
-128 114 -154 144 -154 175 0 101 -143 425 -235 533 -14 17 0 -13 31 -65 32
-52 74 -131 95 -175 35 -75 89 -239 89 -272 0 -9 -19 4 -46 32 -26 26 -75 69
-109 96 -49 38 -64 56 -68 82 -6 37 -77 192 -126 275 -17 29 -31 59 -31 67 0
8 -4 16 -9 19 -5 4 -7 -3 -4 -14 3 -11 1 -20 -5 -20 -5 0 -13 -11 -16 -25 -4
-14 -10 -25 -15 -25 -11 0 -46 90 -56 142 -8 40 1 81 16 73 11 -7 12 5 1 23
-6 9 -13 0 -22 -27 -15 -47 -9 -91 27 -180 24 -59 25 -67 13 -116 -10 -40 -10
-61 -1 -85 l11 -32 -38 8 c-20 5 -108 9 -195 9 -86 0 -157 2 -157 5 0 16 41
109 83 190 113 216 102 179 101 330 -1 148 -36 481 -60 575 -17 65 -63 169
-71 161 -5 -5 25 -93 38 -111 12 -17 37 -155 49 -270 6 -61 15 -146 21 -189
22 -187 9 -323 -38 -391 -14 -19 -14 -19 -11 5 6 49 -16 30 -33 -27 -9 -32
-31 -96 -49 -143 -18 -47 -34 -97 -37 -113 -4 -18 -13 -29 -30 -33 -13 -4 -26
-4 -29 -2 -2 3 18 106 46 228 27 123 50 232 50 242 0 33 16 18 34 -32 10 -28
22 -52 26 -55 9 -5 -9 60 -31 114 -12 28 -12 52 -2 150 7 64 15 182 18 262 5
137 4 151 -19 215 -13 38 -27 83 -31 101 -8 41 -22 35 -60 -25 -49 -79 -97
-143 -103 -138 -2 3 3 16 11 30 9 14 19 42 23 64 5 34 2 43 -25 74 -25 28 -31
45 -31 79 0 57 40 252 73 354 45 143 45 150 1 192 -51 48 -128 83 -184 83
-222 2 -512 115 -747 291 -51 38 -159 114 -240 169 -144 97 -197 135 -299 212
-27 21 -56 38 -66 38 -9 0 -33 23 -53 50 -20 28 -38 50 -40 50 -33 0 -187 28
-277 51 -120 30 -338 116 -382 150 l-25 20 -7 -26 c-5 -21 -10 -24 -28 -19
-50 16 -87 59 -159 184 -14 25 -31 53 -39 62 -16 21 -396 142 -493 158 -38 6
-80 13 -92 16 -21 4 -23 1 -23 -38 0 -24 11 -74 24 -111 13 -38 19 -66 12 -63
-142 60 -584 166 -811 195 -111 14 -447 21 -525 11z m617 -56 c-3 -3 -12 -4
-19 -1 -8 3 -5 6 6 6 11 1 17 -2 13 -5z m50 -10 c-3 -3 -12 -4 -19 -1 -8 3 -5
6 6 6 11 1 17 -2 13 -5z m168 -29 c238 -51 527 -136 512 -151 -2 -3 -15 -1
-28 4 -13 5 -42 12 -64 15 -37 6 -36 5 17 -16 59 -23 81 -37 58 -37 -16 0
-211 70 -225 80 -8 6 -142 50 -165 55 -40 7 -227 60 -234 67 -15 12 -4 11 129
-17z m-845 -16 c26 -6 22 -7 -20 -2 -30 3 -64 9 -75 14 -23 10 37 2 95 -12z
m1545 -89 c6 -9 45 -163 45 -176 0 -10 -30 -2 -49 14 -17 13 -22 33 -28 95 -5
66 -4 77 10 77 9 0 19 -5 22 -10z m-7340 -67 c159 -63 299 -132 396 -196 51
-33 71 -42 88 -36 11 5 21 13 21 19 0 5 9 10 21 10 12 0 18 4 13 11 -4 7 -1
10 7 7 8 -3 19 1 24 9 14 19 56 26 165 26 l95 1 -80 22 c-44 12 -89 23 -99 23
-11 1 -17 4 -13 7 9 9 308 -67 302 -76 -3 -5 4 -6 14 -3 26 7 153 -52 183 -84
35 -38 64 -50 204 -83 330 -79 391 -96 574 -158 107 -36 245 -89 305 -117 190
-90 388 -190 439 -223 28 -18 56 -32 63 -32 7 0 63 -25 124 -55 l110 -56 -74
-58 c-81 -64 -197 -193 -256 -283 -21 -32 -62 -112 -92 -178 -30 -66 -58 -119
-64 -119 -22 0 -61 47 -74 89 -26 89 -141 239 -298 391 -159 154 -291 249
-474 340 -159 80 -620 225 -882 278 l-137 27 44 32 c24 18 47 32 50 32 3 0 29
15 58 33 59 38 174 85 288 119 57 17 69 24 48 26 -33 4 -179 -39 -265 -78 -35
-16 -102 -55 -151 -88 l-88 -59 -18 43 c-10 24 -35 63 -57 88 -103 117 -393
291 -629 378 -66 24 -90 36 -65 33 22 -4 103 -31 180 -62z m7466 21 c16 -19
50 -192 39 -199 -3 -2 -18 6 -33 18 -20 17 -29 39 -41 96 -8 40 -12 79 -9 87
7 19 27 18 44 -2z m180 -165 c15 -57 24 -107 22 -112 -2 -4 -17 1 -32 12 -22
16 -32 37 -49 103 -31 116 -28 141 12 114 15 -9 28 -42 47 -117z m-7204 95
c-3 -3 -12 -4 -19 -1 -8 3 -5 6 6 6 11 1 17 -2 13 -5z m793 -4 c20 -6 21 -8 5
-8 -11 0 -31 4 -45 8 -20 6 -21 8 -5 8 11 0 31 -4 45 -8z m-743 -6 c-3 -3 -12
-4 -19 -1 -8 3 -5 6 6 6 11 1 17 -2 13 -5z m50 -10 c-3 -3 -12 -4 -19 -1 -8 3
-5 6 6 6 11 1 17 -2 13 -5z m783 -4 c11 -8 7 -9 -15 -4 -37 8 -45 14 -19 14
10 0 26 -5 34 -10z m430 -81 c190 -40 346 -84 265 -74 -55 6 -26 -11 45 -27
34 -7 47 -13 34 -16 -24 -3 -89 12 -264 62 -63 19 -197 53 -297 77 -329 78
-190 64 217 -22z m-1133 65 c-3 -3 -12 -4 -19 -1 -8 3 -5 6 6 6 11 1 17 -2 13
-5z m1735 -198 c16 -32 27 -60 24 -63 -2 -3 -17 -1 -33 4 -37 12 -91 116 -72
139 10 13 14 12 32 -3 10 -10 32 -44 49 -77z m101 42 c17 -13 81 -147 74 -154
-2 -2 -18 1 -36 7 -24 9 -39 25 -61 70 -17 32 -30 65 -30 74 0 18 30 20 53 3z
m5733 -8 c32 -12 100 -32 151 -46 79 -21 118 -28 202 -33 19 -1 -5 -30 -35
-41 -32 -12 -197 33 -299 81 -120 57 -129 77 -19 39z m-5566 -40 c23 -23 94
-160 86 -167 -2 -3 -17 -1 -33 4 -20 7 -38 28 -65 77 -51 92 -54 106 -29 106
12 0 30 -9 41 -20z m635 -169 c110 -30 261 -61 300 -61 39 0 46 -14 16 -30
-28 -15 -63 -13 -149 10 -84 21 -231 76 -246 91 -14 13 0 12 79 -10z m5810
-262 c11 -5 2 6 -20 26 -22 21 -35 35 -30 32 49 -24 190 -118 278 -185 59 -44
140 -100 180 -123 39 -23 95 -57 122 -74 55 -35 133 -73 180 -86 30 -8 29 -8
-5 -5 -19 2 -46 7 -59 12 -18 5 -22 4 -17 -5 5 -8 0 -14 -13 -18 -12 -3 -21
-8 -21 -12 0 -13 123 -68 175 -79 28 -6 82 -14 121 -17 65 -5 74 -4 100 18 55
45 108 60 142 38 17 -10 -1 -25 -43 -35 -16 -4 -37 -14 -45 -22 -12 -10 -54
-14 -160 -16 -145 -3 -145 -3 -222 31 -43 18 -115 56 -161 85 -81 51 -105 69
-297 222 -52 42 -126 101 -165 132 -109 86 -195 163 -195 173 0 5 30 -12 68
-36 37 -25 76 -50 87 -56z m-1025 63 c0 -4 -13 -13 -29 -18 -16 -6 -35 -24
-42 -39 -17 -34 -39 -44 -39 -18 0 11 -5 24 -12 31 -8 8 -4 14 18 23 70 27
104 34 104 21z m-4061 -127 c27 -13 51 -22 53 -19 3 2 94 -39 204 -92 230
-111 424 -180 589 -207 16 -3 13 -7 -17 -22 -21 -10 -38 -22 -38 -26 0 -19
156 -49 257 -49 59 0 64 2 102 40 31 32 47 40 75 40 45 0 48 -23 7 -44 -16 -9
-31 -22 -34 -30 -4 -10 -38 -16 -140 -21 -126 -7 -141 -6 -243 20 -143 36
-218 63 -396 145 -153 71 -335 175 -425 243 -74 55 -72 62 6 22z m51 -11 c0
-2 -9 0 -20 6 -11 6 -20 13 -20 16 0 2 9 0 20 -6 11 -6 20 -13 20 -16z m4715
-52 c50 -36 113 -85 140 -108 61 -51 204 -212 280 -314 30 -41 62 -83 69 -92
29 -33 81 -166 70 -177 -6 -6 -4 -9 -78 129 -37 69 -80 139 -95 155 -15 17
-47 57 -71 90 -70 95 -190 207 -315 296 -63 44 -115 85 -115 91 0 12 8 7 115
-70z m-5595 29 c0 -5 -9 -13 -20 -16 -12 -4 -32 -25 -47 -47 l-25 -41 -14 32
c-8 18 -11 37 -8 42 3 5 26 15 52 23 58 18 62 18 62 7z m8 -93 c-2 -6 20 -18
47 -27 28 -9 56 -20 63 -24 6 -5 16 -6 20 -3 4 2 43 -2 86 -9 60 -11 92 -11
130 -3 28 5 62 10 75 9 14 -1 28 4 31 10 5 7 24 8 53 4 37 -6 47 -12 55 -34 7
-19 46 -48 148 -109 294 -175 507 -364 789 -697 28 -32 66 -77 85 -99 66 -76
68 -80 28 -56 -20 11 -53 23 -74 25 -20 3 -42 9 -48 14 -18 13 -122 42 -159
44 -19 1 -33 6 -30 11 3 5 -8 7 -25 4 -17 -2 -29 -1 -26 4 3 4 -14 7 -38 6
-24 0 -92 6 -153 15 -60 9 -200 24 -310 32 -110 9 -317 27 -460 41 -143 14
-379 29 -525 34 -318 11 -339 14 -390 51 -32 24 -38 33 -30 47 5 9 33 69 63
132 30 63 72 141 93 172 99 145 265 296 414 377 81 44 91 47 88 29z m694 -74
c149 -86 258 -155 258 -166 0 -4 -41 19 -90 51 -50 32 -130 79 -178 105 -82
44 -145 85 -130 86 3 0 66 -34 140 -76z m388 -247 c25 -16 51 -37 58 -45 6 -9
18 -17 26 -18 38 -6 168 -116 216 -184 l24 -35 -54 44 c-30 25 -84 73 -120
107 -36 35 -68 62 -71 61 -6 -2 -189 124 -189 130 0 6 63 -29 110 -60z m3004
-195 c3 -4 -36 -16 -87 -25 -50 -10 -130 -33 -177 -52 -47 -19 -76 -27 -66
-19 29 21 169 73 239 88 77 17 85 18 91 8z m100 -103 l76 -81 -22 -37 c-13
-20 -85 -162 -161 -316 l-139 -280 -12 37 c-44 128 -180 260 -341 334 -49 22
-42 34 9 14 20 -7 26 -6 31 9 3 11 5 23 4 27 -4 22 27 73 57 94 19 12 31 26
28 31 -3 5 2 9 10 9 9 0 16 5 16 10 0 6 7 10 15 10 9 0 28 9 43 20 15 11 41
21 57 23 17 2 44 10 61 19 17 8 45 14 63 12 18 -2 31 1 31 7 0 7 24 10 73 8
51 -3 71 -1 70 8 -3 16 23 10 48 -13 23 -19 23 -19 8 2 -8 11 -33 42 -57 69
l-42 48 -71 -12 c-39 -6 -98 -20 -130 -31 -62 -21 -84 -25 -59 -11 43 26 167
60 246 70 7 0 46 -35 88 -80z m-358 -8 c-3 -5 -16 -11 -28 -14 -22 -6 -22 -5
-4 8 22 17 40 20 32 6z m-1555 -204 c11 -23 35 -54 52 -69 18 -15 26 -28 20
-28 -7 0 -26 12 -43 28 -32 28 -81 153 -94 238 -4 21 5 2 19 -44 14 -46 35
-102 46 -125z m1479 168 c0 -2 -15 -12 -32 -20 l-33 -16 25 20 c24 20 40 26
40 16z m639 -54 c7 -5 11 -14 7 -20 -8 -12 37 -26 53 -17 15 10 126 -16 361
-85 118 -34 276 -79 350 -99 125 -35 399 -124 427 -139 8 -4 -9 -19 -45 -40
-154 -91 -333 -254 -516 -471 -79 -94 -230 -311 -298 -428 l-25 -44 -7 34 c-9
50 -67 165 -115 228 -59 79 -175 196 -223 226 -110 70 -352 174 -403 174 -8 0
-15 3 -15 7 0 11 247 508 299 600 l46 83 45 0 c25 0 51 -4 59 -9z m-764 -9
c-14 -12 -65 -32 -65 -26 0 3 15 11 33 19 37 17 45 18 32 7z m3382 -14 c-3 -8
-6 -5 -6 6 -1 11 2 17 5 13 3 -3 4 -12 1 -19z m-2342 -12 c28 -7 61 -16 74
-21 16 -5 21 -4 17 4 -4 6 -3 11 2 11 14 0 216 -58 259 -74 21 -8 85 -29 143
-46 122 -37 197 -69 163 -70 -12 0 -46 9 -75 19 -29 11 -78 24 -108 31 -30 6
-91 22 -135 35 -44 12 -125 35 -180 50 -127 34 -245 73 -225 74 8 0 38 -5 65
-13z m-1116 -10 c-9 -8 -89 -46 -89 -42 0 8 65 46 79 46 8 0 12 -2 10 -4z
m3448 -66 c0 -49 4 -75 15 -87 37 -43 27 -62 -12 -23 -14 14 -20 33 -20 63 0
41 10 117 15 117 2 0 3 -31 2 -70z m-7917 30 c0 -5 -10 -10 -22 -10 -47 0
-262 -61 -370 -105 -145 -59 -159 -63 -73 -21 92 46 218 92 330 121 99 26 135
30 135 15z m4355 -26 c-26 -20 -55 -36 -55 -30 0 5 63 46 70 46 3 -1 -4 -8
-15 -16z m-4298 -20 c25 -22 25 -24 3 -10 -13 9 -29 16 -35 16 -5 -1 4 -8 20
-17 17 -10 34 -16 38 -15 5 1 36 -21 70 -49 34 -28 67 -53 74 -56 7 -3 -8 -33
-42 -82 -51 -75 -215 -393 -286 -553 -19 -43 -37 -78 -41 -78 -4 0 -9 9 -13
20 -25 80 -318 242 -521 289 -47 11 -51 15 -48 38 1 15 10 30 19 35 8 5 13 14
9 19 -3 6 2 19 12 30 9 10 14 22 11 26 -4 3 9 17 28 30 19 13 35 30 35 38 0
12 22 25 43 25 4 0 17 9 29 20 12 11 28 20 35 20 7 0 22 8 33 18 11 9 25 18
30 18 6 1 13 3 18 4 4 1 12 3 17 4 21 4 63 25 69 34 3 6 22 10 43 10 23 0 39
6 45 16 6 10 23 16 47 16 23 0 44 6 52 16 9 12 24 15 51 11 27 -4 38 -1 38 8
0 17 24 36 49 38 12 1 21 5 21 9 0 4 10 8 23 8 12 0 17 4 11 8 -5 4 -17 17
-25 28 -13 20 -17 21 -59 8 -25 -7 -79 -20 -120 -30 -41 -9 -106 -27 -144 -40
-39 -13 -72 -22 -74 -20 -5 6 167 66 263 91 116 31 138 31 172 -1z m6430 -20
c-5 -5 -57 13 -57 20 0 3 14 0 31 -6 16 -6 28 -12 26 -14z m-2040 -70 c-5 -5
-57 13 -57 20 0 3 14 0 31 -6 16 -6 28 -12 26 -14z m-1208 -18 l33 -25 -53
-15 c-29 -9 -69 -15 -88 -15 -21 1 -28 3 -16 6 33 8 42 23 13 23 -46 0 -41 19
9 34 64 20 64 20 102 -8z m-3634 4 c-3 -5 -14 -10 -23 -10 -15 0 -15 2 -2 10
20 13 33 13 25 0z m8300 -20 c17 -18 16 -19 -6 -24 -13 -3 -45 -8 -71 -11 -40
-5 -48 -3 -48 9 0 11 -9 16 -27 16 -35 0 -18 17 22 23 75 10 112 7 130 -13z
m-7052 -7 c-7 -2 -19 -2 -25 0 -7 3 -2 5 12 5 14 0 19 -2 13 -5z m-1433 -18
c-14 -8 -29 -14 -35 -14 -5 0 1 6 15 14 14 8 30 14 35 14 6 0 -1 -6 -15 -14z
m984 -4 c15 -16 28 -18 94 -14 52 3 198 -8 452 -36 206 -22 449 -45 540 -51
147 -9 449 -46 459 -56 2 -2 -20 -25 -50 -50 -163 -142 -483 -510 -616 -709
-22 -33 -79 -125 -127 -205 -86 -143 -113 -172 -109 -117 1 15 -3 27 -10 27
-7 0 -25 23 -41 51 -70 126 -290 277 -489 338 -98 30 -329 62 -494 70 l-143 6
68 150 c102 223 239 489 289 556 l43 59 58 0 c45 0 63 -4 76 -19z m436 3 c47
-4 61 -2 50 5 -12 9 -9 11 13 11 60 0 226 -22 309 -41 48 -11 98 -17 111 -14
29 8 253 -20 287 -35 20 -8 13 -9 -40 -5 -36 2 -137 9 -225 15 -166 11 -582
54 -670 70 -45 8 -42 9 25 4 41 -2 104 -7 140 -10z m-1355 -4 c-3 -5 -12 -10
-18 -10 -7 0 -6 4 3 10 19 12 23 12 15 0z m8282 -6 c-3 -3 -12 -4 -19 -1 -8 3
-5 6 6 6 11 1 17 -2 13 -5z m-1143 -112 l79 -27 37 -71 c19 -40 47 -89 61
-110 79 -120 81 -124 62 -130 -97 -33 -304 -132 -448 -214 -22 -12 -141 -74
-265 -138 -124 -63 -274 -142 -333 -174 -59 -32 -111 -58 -116 -58 -4 0 -18
-11 -31 -25 -122 -129 210 376 348 530 112 125 259 268 335 324 41 30 192 125
192 120 0 0 36 -12 79 -27z m-2984 -203 c44 -96 80 -181 80 -189 0 -8 -9 -26
-20 -40 -11 -14 -20 -28 -20 -31 0 -4 -12 -33 -26 -65 -17 -38 -28 -54 -33
-45 -6 10 -29 6 -100 -18 -51 -17 -95 -31 -99 -31 -4 1 18 14 48 30 51 27 53
29 25 29 -16 0 -57 -6 -90 -14 -87 -21 -97 -20 -85 10 19 50 92 151 133 185
53 43 133 174 128 210 -1 14 -11 56 -22 94 -10 39 -14 65 -8 59 5 -5 46 -88
89 -184z m-1550 141 c36 -6 72 -13 81 -16 8 -2 53 -53 99 -112 85 -107 114
-142 203 -238 30 -32 44 -55 37 -59 -6 -4 -59 -26 -118 -50 -580 -235 -1123
-502 -1277 -629 -46 -38 -48 -39 -29 -11 11 17 45 73 74 125 89 158 180 300
249 390 262 338 542 629 595 616 12 -2 50 -10 86 -16z m4830 3 c0 -10 3 -28 6
-40 5 -17 2 -23 -9 -23 -23 0 -47 28 -47 56 0 19 5 24 25 24 17 0 25 -6 25
-17z m-4477 -79 c16 -31 26 -58 25 -60 -12 -11 -50 14 -72 47 -32 48 -33 69
-3 69 18 0 29 -12 50 -56z m4601 43 c23 -17 11 -47 -20 -47 -26 0 -40 20 -30
45 7 18 26 19 50 2z m-180 -135 c59 -86 62 -92 47 -92 -5 0 -27 30 -50 68 -22
37 -50 83 -62 102 -40 62 7 7 65 -78z m-4276 68 c13 -13 22 -33 22 -51 0 -27
-3 -30 -22 -24 -33 10 -47 26 -54 63 -6 27 -4 32 13 32 11 0 29 -9 41 -20z
m5232 16 c0 -11 -19 -15 -25 -6 -3 5 1 10 9 10 9 0 16 -2 16 -4z m318 -132
c-4 -65 -10 -139 -13 -165 -6 -46 -7 -47 -81 -84 -41 -21 -74 -41 -74 -45 0
-4 -8 -10 -17 -13 -10 -4 -28 -13 -39 -22 -20 -15 -22 -15 -20 2 1 14 -7 18
-34 19 -19 0 -66 2 -105 4 l-70 3 55 6 c30 4 63 3 73 -2 9 -4 25 -4 34 2 14 7
10 11 -22 16 -22 4 -53 11 -69 16 -16 5 -70 9 -120 9 l-91 0 40 38 c22 20 49
44 60 52 19 14 19 14 6 -2 -20 -26 -5 -22 43 12 42 31 120 52 242 65 49 5 64
3 77 -9 8 -9 17 -16 20 -16 10 0 97 202 97 227 0 8 3 12 8 9 4 -2 4 -57 0
-122z m-778 66 c35 -38 55 -115 46 -183 -12 -91 -18 -117 -27 -111 -5 3 -9 0
-9 -6 0 -6 7 -13 15 -16 8 -4 15 -12 15 -20 0 -7 6 -17 13 -21 16 -10 52 -66
49 -75 -1 -5 6 -8 16 -8 32 0 240 -365 313 -547 73 -183 86 -258 61 -348 -6
-22 -16 -69 -22 -105 -11 -60 -21 -79 -44 -80 -4 0 -6 12 -3 28 3 15 1 75 -4
134 -11 126 -55 284 -126 445 -48 108 -179 336 -234 405 -16 20 -29 42 -29 48
0 7 -6 10 -14 7 -7 -3 -18 -1 -23 4 -5 5 -7 -4 -5 -24 2 -18 -1 -48 -6 -67
l-9 -35 -34 70 c-23 49 -34 87 -36 130 l-4 60 21 -37 c30 -56 33 -46 4 17 -13
31 -24 58 -24 62 0 3 24 3 53 1 l52 -5 -31 15 c-19 9 -43 12 -58 8 -24 -6 -26
-11 -26 -58 0 -42 -2 -49 -12 -39 -9 8 -13 44 -13 104 0 75 4 99 19 122 16 24
16 27 3 16 -27 -21 -40 -82 -36 -164 3 -50 10 -81 20 -94 18 -20 32 -67 23
-76 -12 -11 -41 12 -54 42 -6 17 -16 54 -20 83 -7 50 -8 51 -9 13 -2 -80 40
-165 75 -151 21 8 52 -59 38 -81 -16 -25 -28 -26 -58 -2 -36 29 -54 66 -72
156 -24 112 -14 224 25 306 36 74 33 90 -3 18 -57 -112 -67 -204 -37 -336 22
-100 44 -143 80 -158 32 -14 30 -37 -2 -37 -31 0 -72 41 -104 103 -21 42 -27
70 -31 148 -6 136 17 238 67 291 20 21 43 40 51 41 8 2 22 7 30 12 12 7 57 19
93 24 5 0 22 -12 37 -29z m170 -22 c23 -28 34 -93 25 -147 -8 -48 -20 -53 -28
-11 -10 45 -42 73 -78 65 -16 -4 -29 -2 -29 3 0 5 -3 24 -6 41 -6 29 -4 32 37
51 55 25 57 25 79 -2z m-5050 -136 c45 -51 79 -96 76 -99 -8 -9 -99 81 -134
132 -15 22 -30 42 -35 43 -4 2 -4 8 -1 14 3 5 7 8 8 6 2 -2 40 -45 86 -96z
m479 63 c104 -53 200 -259 188 -401 -7 -76 -33 -134 -61 -134 -42 0 -107 42
-147 97 -80 107 -117 232 -104 348 10 86 18 97 83 104 7 0 26 -6 41 -14z m204
-30 c30 -13 87 -112 87 -150 l-1 -30 -16 26 c-29 47 -94 74 -119 49 -15 -15
-69 70 -57 90 15 24 77 53 81 37 1 -7 13 -17 25 -22z m-341 -79 c-6 -141 29
-249 115 -354 34 -42 97 -82 128 -82 9 0 13 -4 10 -10 -18 -29 -103 -3 -169
52 -74 61 -148 276 -131 384 5 33 36 94 48 94 1 0 0 -38 -1 -84z m4245 12 c-3
-8 -6 -5 -6 6 -1 11 2 17 5 13 3 -3 4 -12 1 -19z m-4301 -167 c8 -46 26 -106
40 -132 29 -57 32 -88 5 -42 -32 51 -62 163 -65 243 -2 41 -2 62 0 45 3 -16
12 -68 20 -114z m935 63 l-30 -60 19 -69 c11 -39 20 -74 20 -78 0 -5 4 -6 9
-3 8 6 26 73 23 89 -1 4 3 7 8 7 22 0 62 -123 120 -368 33 -141 65 -270 70
-285 l9 -28 -42 31 c-23 17 -50 37 -60 44 -12 9 -38 91 -82 257 -35 134 -75
278 -88 319 l-23 76 35 77 c20 42 37 71 39 64 1 -7 -11 -40 -27 -73z m3356
-81 c-2 -21 -4 -4 -4 37 0 41 2 58 4 38 2 -21 2 -55 0 -75z m-4507 57 c-8 -5
-22 -10 -30 -10 -13 0 -13 1 0 10 8 5 22 10 30 10 13 0 13 -1 0 -10z m168 -15
c-3 -3 -9 2 -12 12 -6 14 -5 15 5 6 7 -7 10 -15 7 -18z m5302 -39 c0 -2 -18
-15 -40 -30 -22 -14 -40 -22 -40 -17 0 5 15 18 33 29 31 20 47 26 47 18z
m-4337 -173 c26 -87 47 -162 47 -168 -2 -25 -43 78 -61 150 -10 44 -26 101
-34 128 -8 26 -11 47 -6 47 4 0 29 -71 54 -157z m-316 131 c-3 -3 -12 -4 -19
-1 -8 3 -5 6 6 6 11 1 17 -2 13 -5z m4509 -126 c-8 -46 -17 -105 -21 -133 -4
-27 -13 -72 -20 -100 -13 -48 -14 -49 -14 -15 -1 35 44 311 56 340 13 36 13
-15 -1 -92z m-720 -70 c13 -17 22 -33 18 -37 -8 -8 -61 56 -84 105 -32 66 -22
85 11 20 16 -32 41 -72 55 -88z m780 127 c-3 -8 -8 -45 -11 -82 -3 -38 -7 -88
-10 -113 -5 -46 2 -40 25 23 5 15 14 27 19 27 15 0 34 -29 34 -55 0 -33 13
-23 21 16 3 18 8 30 10 28 4 -4 -15 -117 -29 -176 -4 -16 -17 -25 -48 -34 -23
-6 -54 -17 -68 -24 l-25 -14 21 117 c12 64 27 153 34 196 13 82 20 106 28 106
3 0 3 -7 -1 -15z m-550 -20 c1 -8 -4 -11 -12 -8 -15 6 -18 16 -7 26 8 9 16 1
19 -18z m-667 -81 c24 -31 25 -38 8 -56 -41 -42 -151 -183 -190 -244 -58 -92
-159 -288 -221 -433 -27 -63 -90 -192 -139 -288 l-89 -174 -30 48 c-115 184
-375 331 -639 362 -56 6 -64 9 -34 11 22 1 43 2 48 1 10 -1 9 17 -2 38 -7 13
-4 24 14 43 13 14 21 28 18 32 -3 3 6 11 21 17 14 7 26 19 26 27 0 24 44 83
58 77 6 -2 12 -1 12 4 0 5 12 20 26 34 14 14 23 30 20 35 -3 5 6 14 19 20 14
7 24 16 23 20 -2 5 8 19 22 30 14 12 20 21 14 22 -32 1 -239 -206 -324 -323
-19 -27 -45 -60 -58 -75 l-23 -27 18 30 c37 63 123 173 198 253 155 166 320
268 593 369 142 52 411 137 527 166 44 11 64 6 84 -19z m1826 -14 c3 -5 1 -10
-4 -10 -6 0 -11 5 -11 10 0 6 2 10 4 10 3 0 8 -4 11 -10z m-5530 -102 c22 -19
-23 -6 -70 21 -81 46 -89 70 -10 26 39 -21 74 -42 80 -47z m3806 -11 c31 -40
75 -101 98 -135 39 -58 46 -64 73 -60 27 4 29 3 25 -21 -3 -14 -23 -118 -46
-229 -23 -112 -41 -213 -41 -224 0 -30 -132 -161 -326 -323 -93 -78 -178 -150
-187 -160 -16 -15 -20 -16 -35 -3 -35 31 -137 70 -194 75 -36 4 -58 10 -58 18
0 7 38 88 84 180 47 92 111 228 142 303 32 76 69 157 82 182 77 142 99 181
135 235 47 72 176 235 185 235 4 -1 32 -33 63 -73z m-4383 8 c62 -33 64 -27
-53 -142 -185 -182 -293 -346 -452 -689 -124 -266 -170 -375 -203 -480 l-23
-70 -31 29 c-103 96 -253 160 -466 199 -123 22 -326 30 -414 15 -42 -8 -48 -7
-43 7 4 9 1 16 -4 16 -7 0 -4 10 5 25 9 14 14 25 10 25 -4 0 -2 6 3 13 6 6 9
21 7 31 -1 11 6 26 17 34 10 7 19 21 19 31 0 10 6 24 14 31 8 6 13 17 10 24
-3 7 7 21 21 30 15 10 24 20 21 24 -4 3 6 18 21 34 18 19 22 28 12 28 -8 0 8
21 35 46 36 34 45 49 37 57 -8 8 -23 -2 -57 -38 l-46 -50 33 45 c56 75 229
243 323 313 49 37 93 67 98 67 4 0 31 16 60 36 101 71 459 201 728 264 288 67
280 66 318 45z m215 -127 c78 -46 151 -86 162 -89 11 -3 34 0 51 6 l31 13 -19
-92 c-39 -189 -48 -280 -49 -491 0 -214 20 -507 45 -638 15 -79 14 -85 -18
-97 -16 -6 -32 0 -67 26 -49 36 -230 129 -317 163 -197 78 -482 74 -670 -9
-25 -11 -47 -19 -49 -17 -17 17 255 650 347 806 74 128 193 284 297 392 58 60
108 109 110 109 2 0 68 -37 146 -82z m1107 -139 c31 -90 87 -274 125 -408 65
-228 71 -241 78 -205 20 92 11 176 -23 224 -20 29 -122 321 -115 329 7 6 50
-25 93 -66 39 -37 40 -41 67 -188 16 -82 34 -157 41 -165 7 -9 22 -58 34 -110
50 -227 95 -374 111 -365 4 3 8 -3 8 -12 -1 -10 2 -28 6 -40 6 -19 3 -23 -16
-25 -48 -3 -64 3 -96 34 -21 20 -33 27 -33 17 0 -7 -12 5 -26 29 -28 47 -45
106 -135 462 -66 264 -163 594 -185 627 -17 27 -18 36 -1 31 6 -2 37 -78 67
-169z m4748 116 c84 -32 111 -60 172 -175 22 -41 51 -95 66 -119 l27 -44 -29
7 c-123 32 -284 34 -399 7 -44 -11 -116 -20 -160 -20 -44 -1 -98 -6 -120 -11
-22 -5 -44 -10 -50 -10 -6 0 -10 41 -11 103 -1 97 -8 131 -49 229 -5 14 8 19
87 37 135 30 132 30 268 27 109 -3 135 -7 198 -31z m-2708 21 c0 -2 -7 -7 -16
-10 -8 -3 -12 -2 -9 4 6 10 25 14 25 6z m1280 -170 l10 -129 -37 -61 c-21 -34
-44 -72 -51 -86 -7 -14 -21 -36 -32 -50 l-18 -24 9 44 c22 116 82 389 91 425
14 48 14 45 28 -119z m-4115 72 c15 -35 43 -94 62 -133 82 -164 114 -397 94
-685 -6 -83 -11 -164 -11 -178 0 -21 -2 -24 -10 -12 -8 13 -10 13 -10 -2 0
-24 -18 -32 -37 -17 -14 12 -15 10 -9 -18 7 -32 -13 -81 -27 -66 -4 3 -7 0 -7
-9 0 -8 -18 -29 -41 -47 -22 -18 -44 -43 -48 -54 -6 -16 -12 1 -24 68 -41 223
-59 641 -37 849 12 114 60 366 70 366 4 0 20 -28 35 -62z m2774 59 c-2 -1 -13
-9 -24 -17 -19 -14 -19 -14 -6 3 7 9 18 17 24 17 6 0 8 -1 6 -3z m-69 -51 c0
-2 -8 -10 -17 -17 -16 -13 -17 -12 -4 4 13 16 21 21 21 13z m-2593 -48 c-3 -8
-6 -5 -6 6 -1 11 2 17 5 13 3 -3 4 -12 1 -19z m2543 9 c0 -2 -10 -12 -22 -23
l-23 -19 19 23 c18 21 26 27 26 19z m-2485 -207 c8 -41 14 -122 13 -180 l-1
-105 -8 100 c-8 103 -31 253 -49 315 -17 58 -10 58 12 0 11 -30 26 -89 33
-130z m4351 58 c11 -33 11 -37 -7 -41 -36 -10 -83 -149 -95 -283 -7 -78 -8
-79 -62 -68 -44 9 -64 63 -69 189 -4 86 -2 108 17 155 34 86 41 91 128 88 l75
-3 13 -37z m-353 -30 c-25 -47 -28 -63 -28 -148 1 -52 -1 -87 -3 -77 -2 9 -7
17 -12 17 -8 0 -122 -162 -174 -248 -16 -26 -29 -58 -31 -72 -1 -14 -6 -34
-12 -45 -6 -11 -11 -23 -12 -28 -1 -7 -12 -29 -39 -72 -6 -11 -19 -33 -28 -48
-14 -25 -99 -136 -225 -292 -60 -74 -359 -385 -370 -385 -6 0 -30 -13 -54 -30
-24 -16 -50 -30 -59 -30 -8 0 -17 -4 -20 -9 -3 -5 -15 -7 -25 -4 -16 4 -18 9
-10 41 12 46 35 90 64 122 13 14 49 53 81 88 31 34 53 62 49 62 -5 0 0 10 11
23 11 12 26 30 33 40 12 15 12 17 -5 10 -10 -4 -24 -14 -31 -22 -7 -9 -13 -12
-13 -6 0 5 -7 -1 -16 -13 -8 -12 -20 -20 -25 -17 -5 4 -9 2 -9 -3 0 -5 -12
-14 -27 -21 -14 -7 -36 -20 -47 -31 -12 -10 -48 -42 -81 -71 -33 -28 -76 -69
-96 -89 -19 -21 -49 -45 -66 -54 -37 -19 -222 -73 -278 -81 -22 -3 -45 -8 -52
-10 -56 -19 23 133 91 174 26 16 98 29 193 36 27 2 48 20 213 179 129 125 400
368 575 516 55 46 155 138 223 205 112 108 132 134 207 260 85 142 114 185
128 185 4 0 -5 -24 -20 -52z m26 -64 c-10 -19 -9 -45 5 -135 10 -61 26 -139
36 -172 11 -34 18 -63 16 -65 -5 -5 -51 93 -70 152 -9 27 -20 84 -23 126 -5
66 -3 82 18 126 22 48 23 48 27 20 2 -16 -2 -40 -9 -52z m342 22 c-31 -38 -71
-190 -72 -277 -1 -33 -5 -62 -10 -65 -15 -9 -10 132 7 209 22 96 55 163 76
151 5 -4 5 -10 -1 -18z m1183 -11 c78 -17 156 -44 156 -55 0 -7 43 -90 217
-419 90 -168 91 -189 18 -208 -65 -16 -106 -16 -181 2 -69 16 -149 65 -160 97
-3 11 -49 78 -102 147 -53 69 -123 162 -156 206 -33 44 -84 107 -113 140 -29
33 -53 64 -55 70 -9 31 256 45 376 20z m-328 -137 c141 -145 362 -422 363
-457 1 -24 -56 -7 -256 77 -279 116 -454 239 -540 379 l-31 49 74 28 c70 26
154 42 235 45 33 1 44 -8 155 -121z m-71 102 c10 -11 16 -20 13 -20 -3 0 -13
9 -23 20 -10 11 -16 20 -13 20 3 0 13 -9 23 -20z m688 -21 c71 -20 84 -27 134
-78 90 -91 223 -275 223 -308 -1 -38 -75 -144 -127 -182 -50 -36 -53 -37 -53
-11 0 40 -234 549 -266 578 -33 29 -16 29 89 1z m-7973 -42 c0 -2 -12 -14 -27
-28 l-28 -24 24 28 c23 25 31 32 31 24z m6137 -199 c-3 -8 -6 -5 -6 6 -1 11 2
17 5 13 3 -3 4 -12 1 -19z m-6287 -28 c-11 -16 -26 -33 -32 -36 -7 -4 1 9 16
29 34 44 46 50 16 7z m7006 -125 c27 -124 70 -231 125 -312 70 -104 180 -230
241 -278 l64 -50 24 -138 c12 -75 20 -140 17 -143 -11 -12 -176 87 -233 138
-117 108 -215 271 -283 473 -34 101 -48 238 -37 347 6 54 11 67 29 76 12 5 23
9 25 7 1 -1 14 -55 28 -120z m-7095 8 c-5 -10 -17 -27 -26 -38 -16 -19 -17
-19 -3 5 26 46 29 50 34 50 3 0 0 -8 -5 -17z m7320 -84 c20 -16 67 -45 105
-65 80 -42 331 -144 419 -169 87 -25 131 -50 159 -92 14 -20 24 -38 23 -39 -1
-1 -33 5 -71 12 -38 8 -71 12 -74 10 -2 -3 9 -8 24 -11 16 -3 36 -10 44 -14
16 -8 91 -133 84 -140 -5 -6 -95 29 -124 49 -48 32 -190 90 -219 90 -28 0 -61
-21 -61 -39 0 -5 -13 -11 -29 -14 -27 -6 -73 7 -161 46 -48 21 -165 178 -236
318 -20 41 -24 56 -16 73 6 12 11 15 11 9 1 -7 6 -13 13 -13 6 0 43 -30 82
-67 137 -130 249 -207 331 -227 17 -4 44 -14 60 -21 44 -20 165 -45 165 -34 0
5 -8 9 -18 9 -38 0 -201 54 -277 92 -115 57 -188 120 -283 243 -43 55 -44 58
-17 41 17 -10 46 -32 66 -47z m-684 -48 c7 -1 24 -18 38 -38 l25 -38 -35 -17
c-19 -10 -60 -49 -92 -87 -32 -38 -63 -70 -69 -70 -21 -2 -61 72 -54 99 4 14
2 32 -3 41 -12 20 15 58 66 96 25 19 40 23 72 19 22 -3 45 -5 52 -5z m-6739
-36 c-6 -14 -13 -23 -15 -21 -5 5 15 46 22 46 3 0 -1 -11 -7 -25z m8705 -22
c-41 -107 -103 -196 -159 -227 l-42 -24 -6 23 c-9 37 8 67 77 133 55 54 125
112 134 112 1 0 -1 -8 -4 -17z m-8 -178 c-17 -46 -30 -60 -87 -94 -49 -29 -75
-33 -83 -13 -4 11 2 23 17 34 80 60 76 54 125 147 l18 33 13 -33 c12 -28 11
-38 -3 -74z m-2046 -54 c-6 -18 -13 -30 -15 -28 -2 2 1 18 7 36 6 18 13 30 15
28 2 -2 -1 -18 -7 -36z m1516 13 c11 -8 34 -33 50 -58 29 -43 34 -46 115 -65
46 -12 126 -41 177 -66 88 -43 95 -49 141 -118 50 -73 165 -230 300 -411 41
-53 72 -99 70 -101 -2 -3 -32 0 -67 6 -34 5 -96 14 -137 19 -41 5 -89 17 -107
27 -17 9 -37 17 -42 17 -6 1 -17 7 -25 14 -8 7 -35 29 -59 50 -57 48 -47 36
-153 187 -205 292 -345 534 -299 517 9 -3 25 -11 36 -18z m-5677 -9 c-3 -3 -9
2 -12 12 -6 14 -5 15 5 6 7 -7 10 -15 7 -18z m4378 -187 c9 -18 26 -46 39 -63
31 -43 58 -125 40 -125 -12 0 -75 -64 -75 -76 0 -3 14 4 30 16 l30 21 -9 -24
c-5 -14 -15 -44 -21 -67 -10 -38 -13 -40 -24 -24 -7 9 -18 14 -24 10 -15 -9
-36 27 -57 95 -17 54 -17 60 3 160 12 57 24 140 29 184 l7 80 8 -77 c4 -42 14
-92 24 -110z m1625 135 c13 -16 12 -17 -3 -4 -10 7 -18 15 -18 17 0 8 8 3 21
-13z m-1875 -138 l-15 -90 5 85 c3 47 8 99 12 115 14 65 13 -19 -2 -110z
m-2898 -84 c67 -84 106 -140 101 -145 -6 -7 -135 99 -240 196 -85 80 -91 88
-67 88 16 0 33 8 40 19 11 17 15 15 62 -37 28 -30 75 -85 104 -121z m-472 82
l25 -16 -33 -14 c-18 -8 -70 -23 -115 -34 -79 -19 -84 -19 -115 -2 l-33 17 79
13 c43 8 95 22 115 33 45 24 46 24 77 3z m-472 -27 c68 -46 96 -54 96 -28 0
13 9 22 26 26 27 7 47 0 23 -8 -8 -2 -21 -7 -29 -9 -8 -3 0 -6 18 -6 18 -1 50
-13 72 -27 35 -24 45 -26 96 -19 39 5 54 3 50 -4 -4 -6 -14 -11 -22 -11 -21 0
-17 -17 8 -34 13 -9 43 -16 71 -16 52 0 70 -18 46 -46 -10 -12 -24 -15 -56
-10 -24 3 -43 4 -43 1 0 -14 86 -46 109 -40 45 11 82 14 221 20 119 6 139 4
169 -12 43 -22 56 -48 18 -34 -24 9 -325 16 -427 10 -89 -5 -119 7 -315 129
-115 71 -195 130 -195 142 0 16 11 12 64 -24z m2776 -30 c0 -2 -8 -10 -17 -17
-16 -13 -17 -12 -4 4 13 16 21 21 21 13z m2192 -63 c42 -29 140 -86 216 -127
135 -71 279 -171 407 -281 33 -29 94 -76 135 -105 41 -29 91 -67 111 -84 85
-74 145 -123 179 -144 20 -13 36 -31 37 -40 0 -10 15 -64 32 -122 17 -58 31
-106 31 -107 0 -2 -11 -3 -25 -3 -37 0 -129 37 -186 76 -28 19 -56 31 -62 27
-5 -3 -7 -1 -4 4 4 6 -33 42 -81 81 -48 39 -119 101 -158 139 -67 64 -185 162
-210 173 -6 3 -76 49 -157 103 -80 54 -151 96 -157 92 -6 -4 -9 -1 -8 6 2 6
-3 14 -11 17 -9 3 -11 0 -6 -8 5 -9 4 -11 -4 -6 -6 4 -9 11 -6 16 3 5 -5 14
-17 21 -22 12 -22 11 -8 -6 14 -17 14 -18 -8 -6 -12 7 -20 16 -17 21 3 5 -11
18 -33 29 l-38 19 -23 124 c-12 67 -25 131 -28 142 -6 21 -9 23 99 -51z
m-4437 17 c-59 -25 -143 -43 -163 -35 -12 5 4 13 53 29 39 12 79 27 90 33 14
8 25 8 40 1 18 -10 17 -13 -20 -28z m503 9 c15 -11 51 -44 81 -72 29 -29 99
-80 155 -113 55 -34 102 -68 104 -77 7 -35 -149 -35 -229 0 -24 11 -69 43 -99
71 -53 49 -54 51 -21 39 27 -10 35 -9 38 1 3 6 9 10 14 6 22 -13 5 17 -41 75
-51 63 -55 72 -43 84 9 10 12 9 41 -14z m-498 -39 c-19 -11 -46 -19 -60 -19
-20 0 -16 4 20 19 59 25 85 25 40 0z m5435 -50 c10 -11 13 -20 7 -20 -6 0 -16
9 -22 20 -6 11 -9 20 -7 20 2 0 12 -9 22 -20z m-1721 -49 c57 -93 160 -182
279 -240 134 -65 227 -96 421 -138 88 -19 162 -36 165 -39 9 -9 -39 -3 -172
20 -334 60 -496 131 -630 276 -52 56 -107 143 -107 170 0 18 7 11 44 -49z
m-2187 -193 c-3 -8 -6 -5 -6 6 -1 11 2 17 5 13 3 -3 4 -12 1 -19z m-1345 -35
c29 -32 123 -178 109 -168 -13 7 -161 183 -161 190 0 14 29 2 52 -22z m1324
-148 l-15 -130 4 125 c2 69 7 136 12 150 14 46 14 -7 -1 -145z m-818 139 c99
-3 152 -9 172 -19 66 -34 200 -219 200 -276 0 -10 39 -57 88 -104 48 -48 76
-81 63 -75 -19 10 -25 9 -32 -1 -7 -11 -12 -9 -24 8 -9 13 -37 37 -63 55 -41
28 -55 32 -132 36 -84 4 -139 22 -68 22 45 0 68 8 68 25 0 18 -53 61 -114 92
-28 14 -58 31 -66 38 -8 7 -36 16 -62 19 -26 4 -61 14 -77 22 -29 14 -79 80
-73 97 3 10 -31 22 -110 37 -49 9 -68 17 -68 28 0 13 11 14 78 8 42 -4 141
-10 220 -12z m2706 -86 c3 -13 57 -111 121 -218 113 -192 115 -196 114 -255
-1 -104 -2 -104 -109 -24 -52 38 -116 86 -142 107 l-46 37 4 95 c6 104 33 280
45 280 4 0 9 -10 13 -22z m675 -12 c106 -37 442 -109 502 -107 23 0 42 -6 52
-17 15 -17 15 -21 -1 -52 -21 -43 -36 -44 -202 -11 -63 12 -158 29 -210 37
-52 8 -133 24 -180 35 -75 17 -88 24 -107 52 -27 40 -28 54 -6 79 22 25 39 23
152 -16z m-2784 -94 c-60 -50 -107 -83 -112 -78 -9 9 9 25 64 57 48 29 66 36
48 21z m4496 -82 c21 -50 33 -98 37 -142 5 -73 -5 -98 -39 -98 -23 0 -24 -19
-4 -46 30 -40 13 -36 -32 7 -27 26 -91 81 -143 124 -92 74 -210 183 -240 221
-8 10 37 -24 100 -75 179 -145 295 -194 322 -135 14 31 -1 117 -32 176 -11 21
-20 44 -20 50 0 23 19 -7 51 -82z m-4466 31 c-3 -16 -1 -66 5 -111 6 -45 9
-84 7 -87 -7 -6 -47 131 -47 161 0 28 19 66 33 66 5 0 6 -13 2 -29z m-1388
-71 c33 -20 81 -36 152 -50 131 -26 166 -47 289 -169 88 -88 195 -168 310
-231 23 -13 42 -27 42 -30 0 -12 -111 -58 -190 -79 -246 -66 -625 -55 -888 25
-176 53 -352 146 -351 184 0 10 2 11 6 3 9 -24 42 -13 72 25 18 21 43 73 59
122 25 77 31 87 72 115 56 38 281 114 337 115 29 0 56 -9 90 -30z m681 -78
c50 -11 102 -17 116 -15 14 3 26 3 26 -1 0 -14 -108 -66 -138 -66 -31 0 -62
23 -192 147 -8 8 10 1 41 -15 31 -17 97 -39 147 -50z m5225 41 c3 -16 9 -37
13 -48 4 -12 3 -17 -2 -12 -12 12 -34 87 -24 87 4 0 10 -12 13 -27z m-7027
-59 c13 -13 24 -33 24 -45 0 -18 -6 -14 -34 23 -19 24 -45 52 -58 61 -22 17
-21 17 11 1 19 -9 45 -27 57 -40z m6009 26 c3 -5 2 -10 -4 -10 -5 0 -13 5 -16
10 -3 6 -2 10 4 10 5 0 13 -4 16 -10z m-6228 -66 c139 -59 203 -92 203 -103 0
-5 -26 -19 -57 -31 -32 -12 -103 -43 -158 -70 -55 -26 -117 -53 -138 -60 -27
-9 -52 -30 -89 -76 -28 -35 -53 -64 -56 -64 -7 0 60 115 81 137 11 13 19 25
16 26 -34 29 -285 154 -354 177 l-40 14 30 7 c55 14 350 79 375 82 60 10 85 4
187 -39z m6994 -20 c8 -10 48 -42 89 -72 41 -30 83 -64 92 -76 29 -36 51 -11
70 80 9 43 17 72 17 64 1 -12 3 -12 10 -2 5 9 10 -8 13 -45 3 -32 13 -81 23
-109 20 -63 8 -129 -26 -139 -38 -12 -133 7 -236 47 -46 18 -51 22 -41 38 9
15 6 37 -16 107 -49 155 -47 144 -27 134 10 -6 24 -18 32 -27z m-4508 -47 c57
-26 77 -42 89 -68 23 -46 5 -89 -43 -106 -43 -15 -143 -16 -208 -2 -54 11
-181 86 -165 97 5 4 11 18 12 31 5 33 32 68 62 81 14 5 60 8 103 6 63 -3 92
-11 150 -39z m4834 -54 c-3 -10 -5 -4 -5 12 0 17 2 24 5 18 2 -7 2 -21 0 -30z
m-2140 -49 c50 -17 138 -18 196 0 l46 14 -15 -30 c-23 -45 -73 -92 -142 -136
l-64 -39 -46 49 c-45 48 -47 52 -50 121 l-4 72 20 -18 c11 -11 38 -25 59 -33z
m-354 -136 c67 -47 107 -85 163 -154 31 -37 35 -47 23 -55 -10 -6 -17 -4 -24
9 -5 9 -61 68 -124 130 -64 61 -112 112 -107 112 5 0 36 -19 69 -42z m2077
-18 c8 -5 11 -10 5 -10 -5 0 -17 5 -25 10 -8 5 -10 10 -5 10 6 0 17 -5 25 -10z
m-1595 -140 c-33 -36 -83 -62 -106 -55 -18 6 -11 13 47 45 38 20 71 36 73 34
2 -2 -4 -13 -14 -24z m-6141 -11 c-3 -5 2 -9 11 -9 9 0 13 -4 10 -10 -3 -5 -2
-10 4 -10 15 0 74 -129 67 -146 -3 -8 -12 -11 -23 -7 -15 6 -16 4 -5 -9 10
-13 9 -15 -13 -10 -14 2 -22 8 -19 13 3 5 2 9 -3 9 -11 0 -40 -20 -29 -20 5 0
3 -7 -4 -15 -6 -8 -9 -19 -5 -25 3 -5 2 -10 -3 -10 -5 0 -18 -19 -28 -42 -10
-23 -43 -67 -72 -98 -93 -96 -111 -161 -43 -156 l29 2 -33 -65 c-18 -37 -39
-86 -46 -110 l-13 -44 -39 44 c-44 50 -73 99 -57 99 15 0 12 43 -5 77 -14 28
-13 40 16 159 32 131 55 190 83 213 9 8 16 20 16 28 0 7 9 23 20 35 11 12 20
28 20 35 0 7 4 13 9 13 5 0 23 13 39 29 16 16 40 31 53 33 43 7 69 6 63 -3z
m3720 -93 c160 -64 449 -251 575 -373 66 -63 83 -85 74 -94 -11 -11 -251 -62
-340 -73 -33 -4 -156 -78 -278 -167 -82 -59 -370 -301 -453 -380 -42 -41 -92
-86 -110 -101 -17 -15 -32 -31 -32 -37 0 -21 -20 -11 -34 18 -9 16 -31 89 -51
162 -19 74 -46 177 -60 229 -14 52 -31 113 -39 135 -59 164 -116 439 -97 472
28 53 89 94 186 127 55 19 103 32 107 30 4 -3 8 -1 8 4 0 5 23 7 51 4 48 -4
51 -4 45 16 -8 24 -14 22 134 52 129 27 203 21 314 -24z m2123 -28 c-3 -8 -6
-5 -6 6 -1 11 2 17 5 13 3 -3 4 -12 1 -19z m-4941 -24 c10 -38 -20 -177 -60
-280 -37 -98 -96 -227 -101 -222 -2 2 5 28 15 58 21 60 26 115 11 125 -5 3
-12 -5 -16 -17 -6 -20 -24 -73 -65 -182 l-11 -30 -18 27 c-17 27 -17 30 31
190 27 89 52 190 55 225 6 61 7 64 41 78 20 8 42 12 49 10 7 -3 21 6 30 19 23
31 31 31 39 -1z m-651 -121 c-8 -18 -34 -132 -55 -236 -10 -48 -21 -69 -60
-112 -27 -30 -57 -67 -67 -82 -9 -15 -46 -65 -80 -111 l-63 -83 0 58 c1 105
26 246 55 304 35 69 159 243 187 264 12 8 38 15 56 15 29 0 33 -3 27 -17z
m619 -185 c-25 -40 -43 -64 -39 -53 5 11 24 67 44 125 l36 105 3 -52 c3 -46
-1 -58 -44 -125z m1163 -44 c74 -49 87 -61 43 -39 -76 38 -178 128 -216 190
-10 17 12 -2 48 -41 37 -39 93 -88 125 -110z m-397 107 c62 -19 70 -25 145
-113 44 -51 101 -115 126 -143 26 -27 77 -84 113 -127 72 -83 139 -137 211
-169 65 -29 210 -36 285 -14 30 9 72 18 93 20 44 5 60 13 52 25 -3 5 0 12 6
16 8 5 10 2 5 -7 -4 -8 0 -5 8 5 16 20 16 20 15 0 0 -10 -6 -53 -12 -94 l-12
-75 -77 -52 c-42 -28 -103 -61 -135 -73 -82 -31 -201 -52 -248 -44 -112 18
-250 128 -442 352 -151 175 -286 315 -388 402 -81 68 -111 88 -84 53 13 -16
12 -17 -3 -4 -10 7 -15 18 -12 23 4 6 1 14 -6 18 -8 5 10 11 46 15 32 3 66 8
74 10 35 9 180 -5 240 -24z m3118 -17 c249 -39 327 -80 392 -204 13 -24 12
-25 -7 -7 -24 21 -33 22 -33 1 0 -8 4 -13 9 -10 5 3 12 -1 15 -10 4 -10 2 -13
-6 -8 -8 5 -9 2 -5 -10 4 -10 10 -30 13 -44 3 -18 -2 -13 -18 18 -39 75 -69
120 -82 120 -7 0 -17 5 -23 11 -8 8 -42 11 -93 10 -65 -2 -81 1 -86 13 -8 21
-64 21 -109 -1 -19 -9 -35 -20 -35 -24 0 -4 12 -17 27 -29 l28 -22 -30 8 c-17
4 -38 11 -47 15 -9 5 -28 9 -42 9 -14 0 -26 5 -26 10 0 6 0 13 0 17 0 4 13 9
30 11 17 2 47 13 66 24 l36 21 -56 30 c-37 20 -56 36 -56 48 0 23 12 24 138 3z
m172 -14 c8 -5 11 -10 5 -10 -5 0 -17 5 -25 10 -8 5 -10 10 -5 10 6 0 17 -5
25 -10z m-5021 -275 c-4 -44 -10 -124 -13 -177 -4 -82 -9 -104 -32 -145 -35
-61 -59 -88 -111 -125 -43 -29 -43 -29 -43 -6 2 114 62 338 90 338 10 0 34 38
65 100 27 55 50 98 51 97 1 -1 -2 -38 -7 -82z m4577 25 c81 -26 203 -81 321
-144 158 -84 185 -102 323 -207 202 -153 299 -186 570 -196 96 -3 183 -10 193
-15 9 -5 17 -18 17 -29 0 -17 -5 -20 -22 -16 -13 3 -99 11 -193 17 -95 7 -199
20 -235 30 -121 34 -284 114 -402 198 -173 124 -504 293 -697 357 -29 9 -48
20 -42 24 14 9 116 -3 167 -19z m-3036 -56 c43 -61 30 -56 -15 7 -20 28 -32
48 -26 45 6 -4 25 -27 41 -52z m4559 -9 c34 -56 60 -118 61 -146 0 -9 -9 -24
-19 -33 -19 -17 -20 -17 -26 21 -13 75 -36 158 -50 180 -17 25 -18 33 -7 33 4
0 23 -25 41 -55z m-1563 -100 c12 -8 25 -11 29 -7 5 4 5 1 1 -5 -4 -7 -2 -13
3 -13 6 0 11 -5 11 -11 0 -7 21 -48 47 -92 39 -66 55 -83 86 -95 32 -13 46
-30 93 -111 149 -258 237 -378 329 -448 124 -95 384 -187 604 -214 l100 -13
-6 -30 c-5 -30 -5 -30 11 -11 16 20 17 20 14 0 -2 -11 3 -20 10 -21 6 -1 16
-2 20 -3 14 -2 41 -69 77 -196 19 -66 32 -100 29 -76 -4 24 -19 89 -35 145
-33 114 -34 127 -16 120 22 -8 49 31 62 91 11 46 76 165 90 165 13 0 39 -58
56 -122 36 -138 18 -310 -43 -421 l-24 -42 -135 1 c-191 2 -272 20 -539 118
-302 112 -422 193 -560 381 -40 55 -113 217 -153 340 -9 28 -36 114 -61 191
-31 97 -61 169 -96 227 -56 96 -71 144 -49 158 19 12 21 11 45 -6z m1384 -66
c102 -10 113 -15 178 -79 41 -40 43 -45 37 -84 -9 -51 -29 -101 -46 -111 -18
-11 -60 -15 -54 -5 3 5 -3 14 -14 19 -25 14 -34 14 -26 1 3 -5 2 -10 -2 -10
-5 0 -9 35 -9 78 0 47 -7 91 -16 114 l-16 36 -91 7 c-50 4 -88 11 -85 16 3 5
-68 7 -158 5 -117 -3 -153 -1 -128 6 90 26 225 28 430 7z m-4507 -64 c12 0 46
-58 40 -68 -3 -6 -1 -7 5 -3 11 7 112 -125 112 -147 0 -7 4 -17 9 -22 6 -6 1
-11 -15 -11 -21 -2 -29 6 -44 40 -9 22 -43 77 -75 121 -63 87 -77 114 -54 99
8 -5 17 -9 22 -9z m312 -250 c128 -153 215 -294 215 -352 0 -35 -15 -27 -36
19 -10 23 -29 58 -42 76 -12 18 -20 38 -16 43 7 12 -15 48 -76 119 -26 30 -84
105 -130 165 -101 133 -54 94 85 -70z m-1398 108 c-3 -10 -5 -4 -5 12 0 17 2
24 5 18 2 -7 2 -21 0 -30z m4586 -134 c21 -24 49 -69 63 -99 55 -119 64 -136
85 -170 l23 -35 -33 30 c-18 17 -49 57 -68 90 -20 33 -42 67 -48 75 -7 8 -36
60 -65 115 -55 106 -52 106 43 -6z m-4576 59 c-3 -7 -5 -2 -5 12 0 14 2 19 5
13 2 -7 2 -19 0 -25z m5813 -13 c10 -31 9 -37 -17 -70 -17 -21 -37 -35 -50
-35 -35 0 -73 18 -73 35 0 14 3 14 31 0 17 -9 40 -15 52 -13 28 4 49 45 43 86
-6 42 0 41 14 -3z m-5803 -37 c-3 -8 -6 -5 -6 6 -1 11 2 17 5 13 3 -3 4 -12 1
-19z m22 -207 c1 -77 -3 -103 -20 -138 -12 -24 -24 -42 -27 -39 -2 3 1 13 9
22 9 11 15 62 18 173 5 170 19 157 20 -18z m737 -52 c11 -18 -13 -32 -43 -24
l-28 7 25 13 c31 17 37 18 46 4z m3157 -5 c25 -8 66 -34 90 -57 44 -41 45 -44
52 -119 7 -78 4 -124 -20 -310 -16 -114 -45 -206 -73 -230 -28 -25 -81 -38
-148 -38 -58 0 -144 23 -144 39 0 3 7 40 15 81 26 128 30 328 10 464 -20 135
-22 128 60 167 49 23 97 24 158 3z m1641 -70 c54 -18 53 -9 15 -154 -30 -112
-20 -106 -146 -92 -59 7 -139 21 -178 31 -158 42 -468 171 -377 157 9 -2 20 2
24 8 6 8 8 7 8 -1 0 -9 10 -9 39 2 22 7 41 12 43 10 1 -2 26 -6 53 -9 28 -3
73 -12 100 -21 60 -18 196 -20 213 -3 7 7 12 9 12 5 0 -10 89 36 120 62 14 11
25 20 26 21 0 0 22 -7 48 -16z m-6036 -74 c0 -22 -1 -22 -8 5 -4 17 -8 39 -8
50 0 16 2 15 8 -5 4 -14 8 -36 8 -50z m907 60 c-3 -5 -14 -10 -23 -9 -14 0
-13 2 3 9 27 11 27 11 20 0z m2226 -69 c-1 -2 1 -7 6 -10 7 -5 33 -54 38 -71
1 -3 6 -16 12 -30 98 -228 183 -571 183 -734 0 -106 -8 -139 -29 -114 -46 56
-89 123 -117 183 -43 96 -105 424 -103 553 1 50 -1 94 -4 99 -9 14 -17 132
-10 149 5 14 7 14 16 -2 6 -11 10 -21 8 -23z m2989 -21 c0 -30 -7 -48 -30 -72
l-29 -33 9 35 c5 19 14 54 20 78 13 51 30 46 30 -8z m-5215 11 c7 -12 -12 -24
-25 -16 -11 7 -4 25 10 25 5 0 11 -4 15 -9z m-306 -47 c3 -16 1 -17 -13 -5
-19 16 -21 34 -3 29 6 -3 14 -13 16 -24z m202 -14 c22 -23 53 -49 70 -59 19
-12 26 -21 19 -26 -8 -5 -8 -11 1 -22 16 -18 1 -29 -53 -38 -53 -9 -94 2 -134
37 -42 37 -42 51 -4 95 17 18 30 38 30 43 0 22 35 7 71 -30z m-101 -142 c35
-25 132 -36 179 -20 33 12 34 11 46 -60 6 -31 4 -38 -18 -53 -33 -21 -139 -14
-170 12 -44 36 -57 53 -57 70 0 10 -7 28 -15 39 -8 12 -11 24 -8 28 9 9 11 8
43 -16z m-104 -8 c24 0 44 -4 44 -10 0 -15 -61 -11 -95 6 -16 8 -22 12 -12 9
10 -3 39 -5 63 -5z m-612 -238 c-35 -127 -83 -213 -161 -289 -64 -62 -84 -99
-98 -181 -4 -23 -10 -44 -14 -47 -11 -6 -28 35 -36 86 -6 40 -3 48 32 94 21
28 61 73 89 100 76 76 107 149 144 345 6 31 20 71 32 90 l22 35 9 -68 c7 -60
5 -80 -19 -165z m244 41 c63 -45 75 -57 45 -46 -19 7 -133 93 -133 100 0 6 17
-5 88 -54z m316 -86 c52 -39 176 -108 184 -103 5 3 44 7 88 10 l79 5 -40 -19
c-80 -39 -182 -20 -302 54 -40 24 -82 47 -93 51 -33 10 -23 25 17 25 22 0 48
-9 67 -23z m4158 -193 c9 -16 38 -55 65 -84 l48 -54 -37 23 -38 23 0 -27 c0
-46 -17 -18 -45 73 -15 48 -31 98 -35 112 -11 32 -30 127 -29 143 0 7 13 -31
28 -83 15 -52 35 -109 43 -126z m-4312 182 c0 -2 -9 -6 -20 -9 -11 -3 -18 -1
-14 4 5 9 34 13 34 5z m5680 -106 c16 -6 1 -7 -40 -3 -36 3 -67 7 -69 9 -8 8
84 2 109 -6z m-2076 -209 c22 -24 149 -54 236 -54 36 0 96 6 133 13 59 12 70
12 78 -1 19 -30 10 -34 -106 -55 -104 -18 -197 -18 -243 1 -66 28 -132 76
-132 96 0 24 12 24 34 0z m-1839 -55 c-9 -58 -65 -267 -76 -286 -7 -11 -8 -9
-4 10 3 14 12 70 20 125 9 55 22 124 31 153 17 62 39 61 29 -2z m235 23 c0
-17 -107 -256 -125 -281 -15 -20 -16 -20 -10 -3 4 11 23 65 42 120 40 113 69
175 83 175 6 0 10 -5 10 -11z m2370 -24 c0 -5 -5 -3 -10 5 -5 8 -10 20 -10 25
0 6 5 3 10 -5 5 -8 10 -19 10 -25z m-1702 -56 c58 -11 147 -8 182 5 10 4 19
-3 28 -23 10 -22 27 -34 71 -50 83 -30 92 -45 44 -70 -70 -35 -148 -137 -185
-240 -30 -82 -29 -207 1 -286 67 -171 90 -330 92 -619 1 -99 4 -192 8 -206 4
-15 20 -31 38 -40 18 -8 33 -17 33 -20 0 -3 -19 -11 -43 -17 -36 -10 -46 -18
-65 -58 -12 -25 -22 -54 -22 -65 0 -24 -33 -35 -60 -20 -30 16 -149 24 -190
13 -40 -11 -40 -13 -11 -98 11 -33 23 -77 26 -97 6 -39 30 -72 46 -63 11 8 12
13 -6 -70 -8 -39 -15 -120 -15 -181 0 -118 -1 -120 -72 -322 l-44 -122 -25 62
-24 63 7 290 c4 160 8 305 8 324 1 34 -11 55 -33 57 -7 0 -19 2 -27 3 -20 2
-40 45 -29 63 16 24 9 61 -17 99 -24 36 -96 213 -134 334 -31 98 -49 227 -60
450 -12 224 -41 377 -79 420 -40 44 -34 61 38 104 106 65 223 164 325 277 53
58 96 110 96 116 0 5 8 7 18 4 9 -3 45 -10 80 -17z m-257 -138 c-30 -42 -185
-172 -238 -200 -20 -10 -22 -9 -16 6 9 26 49 68 119 124 51 40 140 98 152 99
2 0 -6 -13 -17 -29z m526 -173 c-1 -39 7 -67 27 -106 15 -30 25 -56 22 -59
-22 -22 -75 64 -76 123 0 27 17 94 25 94 1 0 2 -24 2 -52z m2343 37 c11 -13
-1 -60 -17 -66 -20 -9 -198 -225 -198 -241 0 -5 -7 -15 -16 -21 -9 -7 -15 -20
-13 -30 1 -9 -2 -15 -7 -12 -5 4 -21 -5 -36 -19 -16 -15 -35 -24 -48 -21 -11
2 -37 7 -57 10 -33 5 -40 12 -62 59 -21 45 -24 63 -20 122 4 71 21 107 59 128
11 6 31 18 45 27 30 19 154 61 194 66 16 2 32 6 35 9 10 10 131 1 141 -11z
m-1268 -153 c55 -32 57 -34 78 -105 12 -39 37 -105 56 -146 28 -60 34 -86 34
-138 l0 -65 -82 2 c-110 3 -104 4 -119 -32 -22 -54 -15 -116 29 -223 44 -111
109 -319 147 -477 21 -87 25 -127 25 -263 0 -88 5 -180 11 -205 6 -25 12 -73
12 -106 l2 -62 -35 28 c-19 15 -50 32 -69 38 -48 17 -116 15 -131 -3 -7 -8
-18 -15 -25 -15 -7 0 -18 -6 -24 -14 -6 -7 -22 -11 -35 -9 -17 4 -52 -11 -113
-46 -48 -28 -113 -57 -143 -64 l-55 -14 -3 44 c-2 25 3 65 12 88 26 78 4 103
-81 90 -31 -4 -56 -17 -82 -40 l-38 -34 -32 33 c-29 30 -30 34 -15 46 9 8 29
37 45 65 25 43 29 60 29 127 0 42 -4 79 -9 82 -4 3 -16 -3 -26 -14 -10 -11
-30 -20 -44 -19 -24 0 -25 1 -7 12 37 23 64 58 70 92 10 51 -3 105 -26 114
-18 6 -15 10 21 35 49 34 56 56 72 221 9 101 16 132 44 192 31 68 137 258 193
348 52 83 72 152 73 254 0 57 -6 115 -14 143 l-15 47 48 31 c26 17 55 39 65
50 18 20 18 19 59 -18 23 -21 66 -52 98 -70z m-377 28 c-3 -5 -12 -10 -18 -10
-7 0 -6 4 3 10 19 12 23 12 15 0z m-1565 -55 c0 -18 -4 -23 -15 -19 -17 7 -17
7 -9 28 9 24 24 19 24 -9z m1679 -40 c30 -101 -18 -252 -96 -305 -24 -17 -46
-30 -48 -30 -2 0 12 23 31 51 51 76 68 146 61 251 -4 62 -2 88 6 91 19 7 31
-8 46 -58z m-1633 -40 c-6 -17 -26 -20 -26 -5 0 6 -4 10 -9 10 -4 0 -6 -11 -4
-24 7 -33 -26 -39 -112 -19 -39 9 -85 17 -103 18 -18 1 -38 7 -45 14 -6 6 -17
11 -24 11 -17 0 -17 15 1 30 12 9 26 5 73 -21 46 -26 69 -32 112 -32 49 0 58
4 85 34 29 32 32 33 44 16 8 -10 11 -24 8 -32z m879 -26 c4 -22 27 -70 51
-106 44 -66 51 -83 35 -83 -14 0 -72 70 -87 105 -18 44 -30 140 -16 131 5 -3
13 -24 17 -47z m-3422 -39 c47 -38 135 -92 175 -106 1 0 15 -90 31 -200 33
-230 40 -223 11 11 -11 88 -20 167 -20 175 1 8 12 23 26 34 l26 18 -2 -78 c-1
-44 1 -90 4 -104 3 -14 28 -167 56 -340 42 -261 57 -335 91 -433 45 -128 46
-159 5 -132 -35 23 -82 22 -117 -4 -17 -13 -36 -20 -43 -18 -8 3 -16 30 -20
64 -9 77 -25 125 -38 117 -7 -5 -9 0 -6 14 5 19 3 20 -13 11 -14 -7 -19 -22
-20 -52 l-1 -42 -8 50 c-5 28 -16 100 -25 160 -9 61 -20 128 -25 150 -10 44
-5 63 6 21 5 -23 64 -69 64 -51 0 4 -14 82 -30 175 -27 152 -36 179 -85 282
-68 144 -130 328 -110 328 3 0 34 -23 68 -50z m5594 -17 c-3 -27 -11 -71 -17
-98 -10 -48 -13 -52 -74 -84 -54 -30 -69 -33 -108 -28 -49 7 -118 35 -118 49
0 4 5 8 12 8 22 0 163 89 228 144 36 30 69 55 74 55 5 1 6 -20 3 -46z m-368
-116 c1 -16 -4 -27 -10 -25 -5 2 -11 33 -13 68 l-3 65 13 -40 c7 -22 13 -53
13 -68z m-1694 -84 c-3 -25 -9 -43 -12 -40 -2 3 -1 32 3 64 4 32 10 50 12 39
2 -10 1 -38 -3 -63z m-1328 -5 c-3 -8 -6 -5 -6 6 -1 11 2 17 5 13 3 -3 4 -12
1 -19z m1110 -20 c-3 -8 -6 -5 -6 6 -1 11 2 17 5 13 3 -3 4 -12 1 -19z m-1288
-98 c21 -30 50 -77 65 -105 l28 -50 -42 45 c-72 78 -118 144 -129 185 l-10 40
25 -30 c14 -16 42 -55 63 -85z m1309 10 c0 -22 -1 -22 -8 5 -4 17 -8 39 -8 50
0 16 2 15 8 -5 4 -14 8 -36 8 -50z m1169 7 c21 -4 70 -7 110 -7 128 0 140 -15
146 -173 3 -103 -8 -141 -18 -60 -11 96 -24 175 -28 180 -3 2 -59 8 -126 14
-166 13 -199 29 -154 74 16 16 17 16 24 -2 5 -13 20 -22 46 -26z m50 21 c-27
-7 -45 -7 -60 0 -18 9 -11 11 38 10 59 0 60 0 22 -10z m-787 -122 c0 -8 -67
-46 -81 -46 -29 0 22 32 79 49 1 1 2 -1 2 -3z m1140 -16 c11 -11 20 -27 20
-36 0 -49 96 -275 145 -339 26 -35 104 -80 155 -90 28 -5 41 -2 60 14 l25 21
-30 -15 c-34 -17 -36 -16 -28 13 4 17 11 21 24 17 14 -5 17 -2 13 9 -8 21 14
21 37 0 23 -21 11 -47 -31 -69 -40 -21 -89 -19 -154 5 -98 37 -206 182 -206
276 0 28 -47 174 -61 189 -27 28 3 33 31 5z m-4960 -21 c0 -6 6 -9 14 -6 11 5
21 -23 45 -121 16 -70 34 -161 40 -202 9 -60 30 -321 31 -377 0 -7 -12 -11
-27 -10 -33 3 -35 9 -63 222 -25 189 -41 258 -91 385 -22 58 -33 99 -28 106
12 14 79 17 79 3z m4565 -94 c51 -87 133 -349 161 -512 21 -121 15 -300 -12
-388 l-18 -60 -7 55 c-4 30 -7 125 -8 210 -1 149 -3 162 -40 300 -50 181 -80
280 -120 395 l-32 89 26 -24 c15 -14 37 -43 50 -65z m-1008 13 c-3 -8 -6 -5
-6 6 -1 11 2 17 5 13 3 -3 4 -12 1 -19z m-1108 -58 c12 -22 21 -50 19 -63 -3
-17 -7 -13 -18 21 -7 23 -19 47 -27 53 -14 13 -17 29 -5 29 5 0 18 -18 31 -40z
m246 -88 c16 -73 105 -314 146 -394 28 -54 25 -62 -18 -55 -42 7 -102 -10
-131 -36 -52 -48 -83 -6 -93 128 -5 58 -13 133 -19 167 -5 35 -10 92 -10 128
1 57 4 67 25 83 13 9 26 14 28 10 2 -5 17 -50 32 -101 16 -50 30 -90 32 -88 2
2 -8 51 -23 109 -14 59 -24 113 -21 122 13 33 36 1 52 -73z m-337 -152 c56
-108 101 -248 90 -281 -3 -9 -143 325 -174 416 l-6 20 14 -20 c9 -11 42 -72
76 -135z m1144 -187 c15 -24 16 -36 7 -68 -14 -50 -19 -56 -48 -48 -21 5 -22
10 -17 45 13 78 -20 113 -66 71 -10 -9 -18 -12 -18 -6 0 14 42 50 65 55 26 6
56 -12 77 -49z m1882 15 c-3 -13 -23 -57 -44 -98 -55 -109 -149 -359 -158
-421 l-9 -54 -18 40 c-15 34 -16 59 -12 160 6 121 7 129 21 175 28 93 71 148
146 189 67 37 84 39 74 9z m-1814 -8 c46 -23 49 -37 24 -119 -14 -50 -16 -52
-47 -49 -26 2 -31 7 -28 23 2 11 4 53 5 93 0 39 2 72 4 72 1 0 21 -9 42 -20z
m253 -72 c7 -42 -21 -108 -44 -108 -15 0 -17 8 -12 58 6 75 9 82 32 82 13 0
20 -9 24 -32z m38 -14 c6 -31 -4 -74 -18 -74 -4 0 -8 25 -8 55 0 58 15 69 26
19z m-193 10 c29 -20 28 -34 -2 -34 -26 0 -51 24 -41 40 8 14 17 13 43 -6z
m92 -22 c0 -4 -4 -13 -9 -21 -7 -10 -13 -11 -30 -2 -30 16 -26 28 9 29 17 0
30 -2 30 -6z m-900 -128 c0 -28 -65 -84 -96 -84 -33 0 -78 27 -100 59 -14 19
-14 21 1 21 9 0 28 -9 42 -20 37 -29 77 -25 115 10 39 35 38 34 38 14z m640 6
c12 -8 11 -10 -7 -10 -13 0 -23 5 -23 10 0 13 11 13 30 0z m-3319 -45 c27 -46
22 -57 -11 -23 -26 25 -37 29 -71 26 l-40 -4 23 18 c34 27 78 19 99 -17z
m2335 20 c-4 -12 3 -15 32 -14 33 1 34 2 12 9 -23 7 -23 8 -3 9 27 1 63 -47
63 -84 0 -23 -3 -26 -22 -22 -13 4 -42 9 -65 13 -38 6 -44 11 -66 55 l-24 49
40 0 c31 0 38 -3 33 -15z m414 -52 c0 -13 -4 -23 -10 -23 -5 0 -10 4 -10 9 0
5 -3 24 -6 42 -5 32 -5 33 10 15 9 -11 16 -30 16 -43z m713 17 c115 -40 181
-49 218 -30 15 9 19 7 19 -7 0 -49 -145 -46 -257 3 -32 14 -79 28 -105 30 -40
4 -49 1 -62 -18 -9 -12 -16 -18 -16 -12 0 26 48 70 81 73 3 1 58 -17 122 -39z
m-1195 2 c20 -30 11 -28 -17 4 -13 15 -17 24 -10 22 7 -2 19 -14 27 -26z m508
14 c3 -8 4 -24 2 -36 -2 -17 -5 -14 -14 14 -10 34 0 53 12 22z m461 8 c-3 -3
-12 -4 -19 -1 -8 3 -5 6 6 6 11 1 17 -2 13 -5z m-997 -33 c16 -31 12 -35 -9
-10 -17 21 -21 22 -37 9 -18 -14 -18 -14 -5 3 18 22 38 22 51 -2z m-2264 1
c11 -7 26 -52 18 -52 -3 0 -14 9 -26 20 -12 11 -36 20 -52 21 -27 0 -28 2 -11
9 25 11 57 12 71 2z m244 -14 c-13 -5 -34 -20 -48 -33 -32 -32 -42 -31 -42 4
0 26 4 30 48 38 52 10 79 5 42 -9z m160 -4 c16 -19 2 -85 -19 -92 -11 -4 -12
0 -6 14 10 24 11 54 1 77 -10 21 7 23 24 1z m-423 -16 c9 -12 44 -522 43 -635
0 -59 -16 -80 -24 -31 -9 56 -36 439 -36 510 0 36 -3 74 -7 84 -6 16 -7 16
-14 -2 -7 -17 -8 -17 -8 -1 -1 10 9 22 22 27 l22 9 -22 7 c-19 5 -20 9 -10 25
14 22 21 24 34 7z m368 2 c4 -6 11 -8 16 -5 5 4 9 -8 9 -24 0 -35 -4 -37 -54
-16 -24 10 -50 13 -72 9 -21 -4 -34 -2 -34 4 0 27 50 35 98 15 l37 -15 -19 21
c-16 18 -17 21 -3 21 9 0 19 -5 22 -10z m-325 -45 c-7 -9 -15 -13 -19 -10 -3
3 1 10 9 15 21 14 24 12 10 -5z m2424 -6 c5 -5 -5 -4 -24 1 -18 5 -35 12 -39
16 -9 9 53 -7 63 -17z m921 -26 c-7 -29 -60 -106 -93 -136 -33 -30 -36 -2 -7
61 31 67 61 102 88 102 16 0 18 -5 12 -27z m-947 -85 c15 -66 41 -236 47 -303
l5 -50 -11 45 c-5 25 -21 97 -36 160 -14 63 -33 136 -43 162 -19 51 -17 62 10
48 9 -5 22 -32 28 -62z m580 -80 c-4 -103 -10 -153 -22 -178 -9 -19 -13 -26
-10 -15 4 11 10 90 14 175 9 172 8 160 16 160 4 0 4 -64 2 -142z m-302 104
c15 -9 34 -78 33 -117 -1 -30 -1 -30 -9 -5 -4 14 -11 37 -14 53 -10 44 -42 70
-78 62 -21 -5 -28 -4 -24 4 8 12 75 15 92 3z m1863 -139 c1 -7 -3 -13 -9 -13
-5 0 -10 17 -9 38 1 33 2 34 9 12 4 -14 8 -31 9 -37z m-104 0 l40 -28 -53 -3
c-40 -2 -61 2 -79 15 -14 10 -35 24 -47 30 -18 11 -13 13 39 13 50 0 67 -5
100 -27z m-261 -29 c21 -8 4 -40 -26 -50 -13 -3 -44 -22 -69 -40 -62 -45 -119
-64 -192 -64 -55 0 -60 2 -46 15 8 9 41 20 73 25 53 8 131 45 211 100 35 23
29 22 49 14z m-4356 -174 c-6 -25 -11 -94 -11 -155 -1 -144 18 -196 86 -242
61 -41 102 -53 198 -60 93 -7 157 17 189 69 11 18 20 29 20 23 0 -22 -40 -73
-74 -95 -99 -60 -318 -17 -384 77 -68 97 -80 173 -52 335 11 66 21 132 21 147
1 19 3 15 9 -14 5 -23 4 -59 -2 -85z m472 -139 c-9 -97 -14 -121 -24 -110 -2
2 1 38 6 80 6 48 7 103 1 149 -8 59 -7 78 6 107 l16 35 3 -78 c2 -44 -2 -126
-8 -183z m4394 237 c9 -12 16 -30 16 -40 0 -10 4 -18 10 -18 5 0 7 7 4 15 -8
21 9 19 40 -6 29 -22 32 -50 16 -111 -10 -35 -12 -37 -35 -26 -20 9 -25 19
-26 52 l-1 41 -9 -32 c-11 -37 -12 -37 -40 -23 -14 8 -19 21 -19 53 0 24 -9
59 -19 80 l-19 37 34 0 c23 0 38 -7 48 -22z m-155 -54 c-12 -31 -5 -100 13
-121 7 -9 7 -13 0 -13 -38 0 -57 116 -25 152 21 24 26 17 12 -18z m393 -31 c5
-42 -7 -110 -24 -130 -6 -7 -22 -13 -35 -13 -20 0 -24 4 -18 18 4 9 12 42 17
72 10 51 31 90 48 90 5 0 10 -17 12 -37z m32 -78 c-3 -19 -11 -38 -17 -42 -7
-4 -8 5 -4 27 4 18 7 44 7 59 1 22 2 24 11 9 5 -10 7 -34 3 -53z m-2637 -56
c4 -23 3 -30 -5 -25 -11 7 -25 49 -36 111 -5 26 -3 24 14 -12 11 -23 23 -56
27 -74z m2533 86 c0 -16 -45 -21 -54 -6 -8 12 4 21 31 21 14 0 23 -6 23 -15z
m-4522 -155 c0 -47 -4 -96 -8 -110 -5 -15 -8 28 -8 110 0 82 3 125 8 110 4
-14 8 -63 8 -110z m4177 90 l20 -25 -22 19 c-13 11 -23 24 -23 29 0 6 1 8 3 6
1 -2 11 -15 22 -29z m-1429 -88 c-3 -32 -9 -69 -15 -82 -9 -24 -10 -24 -11 10
-4 78 4 130 21 130 6 0 8 -24 5 -58z m-349 -14 c-2 -13 -4 -5 -4 17 -1 22 1
32 4 23 2 -10 2 -28 0 -40z m-400 10 c-3 -7 -5 -2 -5 12 0 14 2 19 5 13 2 -7
2 -19 0 -25z m1876 -78 c4 -3 -2 -19 -13 -33 -17 -22 -30 -27 -65 -27 -24 0
-68 -6 -98 -14 -83 -22 -180 -29 -254 -20 l-68 8 106 6 c97 5 111 8 177 43 40
20 89 41 110 46 38 8 91 4 105 -9z m305 -58 c118 -10 100 -28 -24 -25 -113 3
-170 18 -191 50 l-14 21 73 -20 c40 -10 110 -22 156 -26z m232 23 c-7 -8 -17
-15 -23 -15 -5 0 -2 9 8 20 21 23 35 19 15 -5z m-93 -21 c-3 -3 -12 -4 -19 -1
-8 3 -5 6 6 6 11 1 17 -2 13 -5z m-2323 -140 c9 -3 16 -16 16 -28 0 -11 9 -40
20 -64 15 -32 17 -49 10 -68 -6 -14 -7 -31 -3 -37 4 -7 0 -7 -9 1 -9 7 -31 52
-48 99 -24 68 -28 88 -18 95 16 9 13 9 32 2z m-2313 -35 c84 -25 161 -22 215
10 19 12 37 21 39 21 1 0 -1 -16 -5 -36 -5 -20 -6 -42 -4 -49 14 -34 -149
-102 -216 -90 -61 11 -67 15 -74 46 -3 17 -14 43 -25 57 -10 15 -22 38 -26 51
-6 20 -4 23 9 18 9 -4 48 -16 87 -28z m2378 -54 c0 -5 -4 -3 -9 5 -5 8 -9 22
-9 30 0 16 17 -16 18 -35z m25 -41 c3 -8 2 -12 -4 -9 -6 3 -10 10 -10 16 0 14
7 11 14 -7z m382 -118 c25 -19 7 -39 -32 -34 -21 2 -30 9 -32 26 -3 17 1 22
20 22 13 0 33 -6 44 -14z m-96 -5 c0 -17 -18 -21 -24 -6 -3 9 0 15 9 15 8 0
15 -4 15 -9z m480 -26 c16 -20 5 -45 -20 -45 -16 0 -20 7 -20 30 0 33 19 40
40 15z m40 -21 c0 -8 -4 -14 -10 -14 -5 0 -10 9 -10 21 0 11 5 17 10 14 6 -3
10 -13 10 -21z m-540 -130 c0 -2 -7 -4 -15 -4 -8 0 -15 4 -15 10 0 5 7 7 15 4
8 -4 15 -8 15 -10z m153 -120 c7 -65 21 -107 46 -138 23 -27 20 -259 -3 -235
-2 2 -18 87 -35 189 -17 102 -38 209 -46 239 -8 30 -11 59 -8 64 11 18 40 -57
46 -119z m-59 79 c16 -56 37 -174 34 -185 -5 -14 -46 115 -55 169 -6 35 12 47
21 16z m367 -158 l-8 -80 -2 106 c0 58 2 109 7 113 11 12 13 -51 3 -139z m-76
74 c13 -28 21 -59 17 -67 -4 -12 -10 -6 -22 21 l-17 38 -33 -33 c-47 -48 -58
-81 -61 -194 -3 -76 0 -105 10 -118 10 -12 11 -20 4 -27 -8 -8 -16 -3 -29 16
-14 22 -18 52 -20 167 l-2 141 47 37 c25 20 52 44 60 53 7 10 15 17 18 17 2 0
15 -23 28 -51z m-47 -136 c-4 -45 -23 -54 -26 -12 -3 33 4 49 19 49 6 0 9 -17
7 -37z m59 -115 c-2 -18 -4 -4 -4 32 0 36 2 50 4 33 2 -18 2 -48 0 -65z m-407
-131 c0 -50 88 -115 205 -153 116 -37 216 -39 292 -5 60 27 98 63 89 86 -6 16
4 14 31 -7 16 -13 -19 -61 -67 -91 -32 -20 -47 -22 -171 -21 l-137 0 19 -44
c32 -73 27 -81 -41 -62 -60 17 -64 22 -45 66 9 21 20 41 26 45 6 3 -20 17 -56
30 -93 33 -142 78 -166 154 -24 78 -24 97 1 60 11 -16 20 -43 20 -58z m262
-336 c18 -6 36 -28 53 -60 36 -72 34 -81 -16 -70 -54 13 -111 37 -121 52 -4 7
-8 32 -8 56 l0 44 33 -6 c17 -3 44 -10 59 -16z"/>
<path d="M1248 12773 c7 -3 16 -2 19 1 4 3 -2 6 -13 5 -11 0 -14 -3 -6 -6z"/>
<path d="M7868 11283 c7 -3 16 -2 19 1 4 3 -2 6 -13 5 -11 0 -14 -3 -6 -6z"/>
<path d="M6188 10343 c7 -3 16 -2 19 1 4 3 -2 6 -13 5 -11 0 -14 -3 -6 -6z"/>
<path d="M9880 10612 c-28 -28 -61 -115 -59 -156 0 -12 7 7 15 40 10 42 26 74
50 103 41 47 37 55 -6 13z"/>
<path d="M10012 10490 c0 -14 2 -19 5 -12 2 6 2 18 0 25 -3 6 -5 1 -5 -13z"/>
<path d="M10006 10443 c-6 -14 -5 -15 5 -6 7 7 10 15 7 18 -3 3 -9 -2 -12 -12z"/>
<path d="M9966 10277 c3 -10 9 -15 12 -12 3 3 0 11 -7 18 -10 9 -11 8 -5 -6z"/>
<path d="M5539 10489 c-16 -31 -13 -139 5 -180 9 -19 12 -23 8 -9 -4 14 -7 62
-7 108 0 63 4 85 15 92 9 6 10 10 3 10 -7 0 -17 -10 -24 -21z"/>
<path d="M5610 10506 c0 -2 7 -7 16 -10 8 -3 12 -2 9 4 -6 10 -25 14 -25 6z"/>
<path d="M5567 10453 c-23 -22 7 -141 50 -205 46 -68 94 -56 92 21 l-2 36 -6
-42 c-9 -51 -13 -57 -40 -48 -25 8 -81 117 -88 175 -5 35 -2 46 12 57 15 10
16 13 4 13 -9 0 -19 -3 -22 -7z"/>
<path d="M5696 10427 c3 -10 9 -15 12 -12 3 3 0 11 -7 18 -10 9 -11 8 -5 -6z"/>
<path d="M5738 10335 c14 -80 7 -143 -18 -170 -13 -14 -29 -25 -36 -25 -21 0
-83 60 -104 99 -11 20 -19 31 -20 25 0 -19 58 -102 85 -120 78 -51 141 70 100
191 l-14 40 7 -40z"/>
<path d="M5691 10324 c0 -11 3 -14 6 -6 3 7 2 16 -1 19 -3 4 -6 -2 -5 -13z"/>
<path d="M3655 9350 c-3 -6 1 -7 9 -4 18 7 21 14 7 14 -6 0 -13 -4 -16 -10z"/>
<path d="M10646 8867 c3 -10 9 -15 12 -12 3 3 0 11 -7 18 -10 9 -11 8 -5 -6z"/>
<path d="M9970 8803 c-15 -4 -55 -83 -41 -83 10 0 35 29 51 58 13 26 12 30
-10 25z"/>
<path d="M7825 6873 c39 -20 81 -44 94 -54 13 -11 28 -19 34 -19 5 0 -8 12
-29 26 -46 31 -148 84 -160 84 -5 -1 23 -17 61 -37z"/>
<path d="M7970 6786 c0 -2 7 -7 16 -10 8 -3 12 -2 9 4 -6 10 -25 14 -25 6z"/>
<path d="M8010 6756 c0 -2 7 -7 16 -10 8 -3 12 -2 9 4 -6 10 -25 14 -25 6z"/>
<path d="M5690 6073 c0 -6 8 -17 18 -24 16 -13 16 -13 2 6 -8 11 -16 22 -17
24 -2 2 -3 0 -3 -6z"/>
<path d="M4352 3320 c0 -14 2 -19 5 -12 2 6 2 18 0 25 -3 6 -5 1 -5 -13z"/>
<path d="M6040 11196 c0 -4 30 -44 67 -89 114 -140 337 -491 385 -606 11 -28
23 -50 25 -47 20 20 -237 451 -373 626 -54 69 -104 125 -104 116z"/>
<path d="M6520 10375 c-4 -79 -2 -122 15 -230 l14 -90 -6 74 c-3 41 -9 126
-13 190 -5 91 -8 103 -10 56z"/>
<path d="M6502 10355 c0 -16 2 -22 5 -12 2 9 2 23 0 30 -3 6 -5 -1 -5 -18z"/>
<path d="M11145 10313 c11 -3 24 -9 30 -14 5 -5 13 -9 19 -9 5 0 1 7 -10 15
-10 8 -28 14 -39 14 l-20 -1 20 -5z"/>
<path d="M11220 10251 c0 -6 4 -13 10 -16 6 -3 7 1 4 9 -7 18 -14 21 -14 7z"/>
<path d="M11260 10195 c0 -5 5 -17 10 -25 5 -8 10 -10 10 -5 0 6 -5 17 -10 25
-5 8 -10 11 -10 5z"/>
<path d="M6552 10015 c0 -22 6 -62 13 -90 17 -65 17 -39 0 55 -9 55 -13 64
-13 35z"/>
<path d="M6582 9850 c0 -14 6 -43 13 -65 l14 -40 -6 40 c-3 22 -10 51 -14 65
l-7 25 0 -25z"/>
<path d="M6613 9718 c4 -13 9 -43 12 -68 4 -25 10 -54 15 -65 10 -21 54 -205
91 -373 12 -56 24 -100 27 -98 9 9 -134 626 -145 626 -3 0 -3 -10 0 -22z"/>
<path d="M6762 9080 c0 -14 2 -19 5 -12 2 6 2 18 0 25 -3 6 -5 1 -5 -13z"/>
<path d="M6772 9030 c0 -14 2 -19 5 -12 2 6 2 18 0 25 -3 6 -5 1 -5 -13z"/>
<path d="M5898 7863 c18 -2 45 -2 60 0 15 2 0 4 -33 4 -33 0 -45 -2 -27 -4z"/>
<path d="M6040 7851 c30 -5 79 -18 109 -30 29 -12 56 -20 58 -17 10 10 -116
49 -167 52 l-55 3 55 -8z"/>
</g>
</svg>
