<?xml version="1.0" standalone="no"?>
<!DOCTYPE svg PUBLIC "-//W3C//DTD SVG 20010904//EN"
 "http://www.w3.org/TR/2001/REC-SVG-20010904/DTD/svg10.dtd">
<svg version="1.0" xmlns="http://www.w3.org/2000/svg"
 width="2048.000000pt" height="497.000000pt" viewBox="0 0 2048.000000 497.000000"
 preserveAspectRatio="xMidYMid meet">

<g transform="translate(0.000000,497.000000) scale(0.100000,-0.100000)"
fill="#000000" stroke="none">
<path d="M655 3507 c0 -272 2 -311 15 -308 129 37 212 53 293 58 53 3 97 10
97 14 0 14 -64 57 -114 77 -46 18 -48 19 -23 26 14 3 67 10 119 16 144 15 329
-10 462 -62 27 -10 51 -17 53 -14 7 7 -25 63 -59 101 -17 20 -29 38 -26 40 9
9 140 -25 214 -56 82 -34 210 -104 220 -120 14 -24 19 -1 19 89 0 80 4 104 22
137 29 54 78 100 135 125 51 22 138 38 138 24 0 -5 -7 -31 -15 -58 -21 -68
-43 -205 -51 -306 l-6 -85 141 -125 c153 -134 173 -159 192 -235 21 -87 45
-120 186 -257 338 -326 323 -310 323 -356 0 -59 -54 -200 -91 -238 -32 -33
-72 -47 -175 -59 -71 -9 -104 8 -199 102 -125 124 -137 127 -465 129 -189 0
-276 4 -305 14 -108 35 -180 91 -210 165 l-17 39 -24 -39 c-48 -78 -124 -241
-153 -330 -51 -160 -65 -246 -65 -415 -1 -164 12 -252 57 -387 l23 -68 247 -3
247 -2 0 285 0 285 404 0 c319 0 421 3 483 15 445 84 790 442 854 884 16 111
6 313 -20 411 -92 353 -337 621 -679 744 -157 56 -158 56 -1246 56 l-1001 0 0
-313z"/>
<path d="M10575 3650 c-316 -45 -537 -262 -606 -594 -17 -81 -19 -141 -19
-567 0 -385 3 -492 15 -557 51 -270 187 -459 400 -557 122 -56 151 -60 485
-60 289 0 309 1 385 23 127 37 209 85 300 176 63 63 90 100 122 166 76 154 95
283 91 610 l-3 205 -413 3 -413 2 3 -82 3 -83 323 -3 322 -2 0 -173 c0 -200
-13 -276 -65 -385 -42 -88 -143 -195 -221 -235 -100 -50 -150 -57 -435 -57
-146 0 -284 5 -309 11 -178 41 -320 192 -382 404 -23 79 -23 87 -23 590 0 462
2 516 18 575 60 213 202 368 382 415 84 21 565 22 648 0 207 -54 344 -221 365
-445 l7 -75 85 0 85 0 -2 71 c-2 91 -25 179 -70 274 -49 102 -167 222 -272
274 -136 69 -192 78 -486 82 -143 1 -287 -1 -320 -6z"/>
<path d="M4767 3623 c-4 -3 -7 -519 -7 -1145 l0 -1138 93 0 92 0 0 452 0 453
500 6 c543 6 543 6 664 66 74 37 180 143 214 213 47 96 57 171 57 435 0 263
-9 329 -57 417 -35 64 -137 159 -205 191 -113 54 -157 57 -776 57 -313 0 -572
-3 -575 -7z m1158 -164 c111 -20 205 -89 246 -182 23 -50 24 -60 24 -317 0
-254 -1 -267 -23 -323 -30 -73 -99 -144 -177 -183 l-60 -29 -497 -3 -498 -3 0
519 c0 285 3 522 7 525 11 12 914 8 978 -4z"/>
<path d="M7440 2543 c0 -1214 -5 -1131 69 -1180 l34 -23 689 0 689 0 -3 78 -3
77 -647 3 -648 2 0 465 0 465 600 0 600 0 0 80 0 80 -600 0 -600 0 0 440 0
440 648 2 647 3 3 78 3 77 -741 0 -740 0 0 -1087z"/>
<path d="M13472 3603 c-8 -23 -834 -2185 -857 -2245 -7 -16 1 -18 88 -18 l94
0 336 898 c185 493 355 949 378 1012 23 63 45 118 48 122 7 8 74 -169 527
-1389 l239 -643 93 0 c50 0 92 3 92 7 0 4 -65 178 -144 387 -191 503 -481
1271 -596 1576 -51 135 -100 255 -108 268 -22 35 -65 52 -126 52 -50 0 -55 -2
-64 -27z"/>
<path d="M15370 3625 c0 -3 171 -252 381 -552 210 -301 383 -553 386 -560 4
-10 -742 -1095 -795 -1156 -15 -17 -11 -18 93 -15 l110 3 347 500 c192 275
351 501 356 502 4 1 165 -225 357 -502 l350 -505 103 0 103 0 -19 28 c-10 15
-189 272 -397 572 -208 300 -381 550 -386 555 -5 6 119 194 301 455 170 245
345 498 390 563 l81 117 -103 0 -103 0 -325 -467 c-179 -256 -332 -474 -340
-484 -14 -17 -38 16 -310 408 -162 234 -314 452 -338 484 l-42 59 -100 0 c-55
0 -100 -2 -100 -5z"/>
<path d="M17977 3598 c11 -18 200 -335 421 -705 l402 -672 0 -441 0 -440 93 0
92 0 -3 431 -2 432 53 91 c30 50 217 365 416 701 200 335 365 615 368 622 4
10 -16 13 -90 13 l-95 0 -367 -620 c-202 -341 -370 -620 -374 -620 -3 1 -170
280 -370 620 l-363 620 -100 0 -100 0 19 -32z"/>
</g>
</svg>
